<?xml version="1.0" encoding="UTF-8" standalone="no"?>
<!-- Created with Inkscape (http://www.inkscape.org/) -->

<svg
   width="210mm"
   height="297mm"
   viewBox="0 0 210 297"
   version="1.1"
   id="svg1"
   xml:space="preserve"
   inkscape:version="1.3.2 (091e20e, 2023-11-25, custom)"
   sodipodi:docname="Module Image Draft.svg"
   xmlns:inkscape="http://www.inkscape.org/namespaces/inkscape"
   xmlns:sodipodi="http://sodipodi.sourceforge.net/DTD/sodipodi-0.dtd"
   xmlns:xlink="http://www.w3.org/1999/xlink"
   xmlns="http://www.w3.org/2000/svg"
   xmlns:svg="http://www.w3.org/2000/svg"><sodipodi:namedview
     id="namedview1"
     pagecolor="#505050"
     bordercolor="#eeeeee"
     borderopacity="1"
     inkscape:showpageshadow="0"
     inkscape:pageopacity="0"
     inkscape:pagecheckerboard="0"
     inkscape:deskcolor="#505050"
     inkscape:document-units="mm"
     inkscape:zoom="1.0242632"
     inkscape:cx="284.10666"
     inkscape:cy="598.96713"
     inkscape:window-width="1920"
     inkscape:window-height="1009"
     inkscape:window-x="-8"
     inkscape:window-y="-8"
     inkscape:window-maximized="1"
     inkscape:current-layer="layer1" /><defs
     id="defs1"><rect
       x="317.30125"
       y="1088.5874"
       width="416.88503"
       height="84.939104"
       id="rect12" /><rect
       x="519.88585"
       y="818.39903"
       width="50.768197"
       height="356.6037"
       id="rect11" /><rect
       x="93.725908"
       y="540.87659"
       width="262.90479"
       height="85.189075"
       id="rect8" /></defs><g
     inkscape:label="Layer 1"
     inkscape:groupmode="layer"
     id="layer1"><image
       width="210.30997"
       height="210.30997"
       preserveAspectRatio="none"
       xlink:href="Assets/KMAssets/Textures/Components/Component_PuzzleBackground.png"
       id="image1"
       x="-0.30996323"
       y="43.345016" /><rect
       style="fill:#000000;fill-opacity:1;stroke:#0079ba;stroke-width:0.177461;paint-order:markers stroke fill"
       id="rect1"
       width="91.456268"
       height="106.63924"
       x="13.455005"
       y="58.918571"
       ry="0.99648559" /><rect
       style="fill:#003561;fill-opacity:1;stroke:#0079ba;stroke-width:0.151413;paint-order:markers stroke fill"
       id="rect2"
       width="85.024422"
       height="99.432442"
       x="16.670927"
       y="62.521969"
       ry="1.1381993" /><path
       sodipodi:type="star"
       style="fill:#000101;fill-opacity:1;stroke:#0079ba;stroke-width:0.132292;paint-order:markers stroke fill"
       id="path2"
       inkscape:flatsided="true"
       sodipodi:sides="3"
       sodipodi:cx="31.514523"
       sodipodi:cy="178.75452"
       sodipodi:r1="12.699576"
       sodipodi:r2="6.3497882"
       sodipodi:arg1="3.1415927"
       sodipodi:arg2="4.1887902"
       inkscape:rounded="0"
       inkscape:randomized="0"
       d="m 18.814946,178.75452 19.049365,-10.99816 -10e-7,21.99631 z"
       inkscape:transform-center-x="3.1748944"
       inkscape:transform-center-y="-2.2520252e-06" /><path
       sodipodi:type="star"
       style="fill:#000101;fill-opacity:1;stroke:#0079ba;stroke-width:0.132292;paint-order:markers stroke fill"
       id="path2-9"
       inkscape:flatsided="true"
       sodipodi:sides="3"
       sodipodi:cx="31.514523"
       sodipodi:cy="178.75452"
       sodipodi:r1="12.699576"
       sodipodi:r2="6.3497882"
       sodipodi:arg1="3.1415927"
       sodipodi:arg2="4.1887902"
       inkscape:rounded="0"
       inkscape:randomized="0"
       d="m 18.814946,178.75452 19.049365,-10.99816 -10e-7,21.99631 z"
       inkscape:transform-center-x="-3.1748962"
       inkscape:transform-center-y="-2.2520252e-06"
       transform="matrix(-1,0,0,1,119.30699,0)" /><path
       style="fill:#000101;fill-opacity:1;stroke:#0079ba;stroke-width:0.132292;paint-order:markers stroke fill"
       id="path4"
       d="m 39.22949,125.95143 c 0.03175,-3.47259 -0.125119,-6.94355 -0.224446,-10.41403 -0.09184,-2.92432 -0.121918,-5.84997 -0.105283,-8.77554 0,0 -3.31089,-1.67661 -3.31089,-1.67661 v 0 c 0.162234,2.97304 0.308443,5.94713 0.395102,8.92349 0.09237,3.36846 0.203287,6.76145 -0.240096,10.11173 z" /><path
       style="fill:#000101;fill-opacity:1;stroke:#0079ba;stroke-width:0.132292;paint-order:markers stroke fill"
       id="path5"
       d="m 38.817923,108.46487 c 3.67933,-0.78934 7.485419,-0.82092 11.232668,-0.86507 4.705773,0.0359 9.391994,0.52493 14.075931,0.93374 1.777749,0.14305 3.559164,0.2326 5.341101,0.30227 0,0 -3.086608,-2.25418 -3.086608,-2.25418 v 0 c -1.717519,-0.0161 -3.434331,-0.0727 -5.148556,-0.18356 -4.601175,-0.27619 -9.198665,-0.69596 -13.811189,-0.70548 -3.253224,0.0121 -2.656475,-0.016 -5.82073,0.0943 -2.01586,0.0703 -4.058634,0.10051 -6.045771,0.48154 z" /><path
       style="fill:#000101;fill-opacity:1;stroke:#0079ba;stroke-width:0.132292;paint-order:markers stroke fill"
       id="path6"
       d="m 66.954254,108.32993 c 0.117223,3.2464 0.34041,6.48607 0.523935,9.72922 0.130527,2.98561 0.07866,1.56888 0.161489,4.24996 0,0 3.141414,1.57829 3.141414,1.57829 v 0 c -0.223766,-2.73593 -0.118632,-1.29589 -0.307134,-4.32071 -0.13779,-3.14611 -0.244374,-6.30103 -0.0042,-9.44553 z" /><path
       style="fill:#000101;fill-opacity:1;stroke:#0079ba;stroke-width:0.132292;paint-order:markers stroke fill"
       id="path7"
       d="m 70.46973,110.2052 c -0.1197,-2.12963 -0.125521,-4.26383 -0.14551,-6.39614 -0.121103,-3.03589 0.15781,-6.054613 0.484034,-9.067672 0.130654,-1.591157 0.398343,-3.162348 0.673518,-4.732753 0.102179,-0.693452 0.223594,-1.383059 0.349969,-2.072415 0,0 -3.452881,-1.833706 -3.452881,-1.833706 v 0 c -0.11126,0.699694 -0.24048,1.395466 -0.303249,2.101993 -0.232262,1.604251 -0.464804,3.209213 -0.540335,4.830802 -0.236879,3.038489 -0.478793,6.079929 -0.435512,9.130811 -0.01971,2.08285 -0.02349,4.16785 -0.14551,6.24786 z" /><rect
       style="fill:#e58f00;fill-opacity:1;stroke:#0079ba;stroke-width:0.132292;paint-order:markers stroke fill"
       id="rect7"
       width="69.486938"
       height="94.285248"
       x="109.52588"
       y="122.18335"
       ry="10.037535" /><text
       xml:space="preserve"
       transform="matrix(0.26458333,0,0,0.26458333,-0.36682312,-4.0750642)"
       id="text7"
       style="font-weight:bold;font-size:72px;line-height:1;font-family:Alegreya;-inkscape-font-specification:'Alegreya Bold';text-align:center;letter-spacing:0px;white-space:pre;shape-inside:url(#rect8);fill:#e58f00;fill-opacity:1;stroke:#0079ba;stroke-width:0.5;paint-order:markers stroke fill"><tspan
         x="158.07477"
         y="594.62567"
         id="tspan2"><tspan
           style="fill:#20e500"
           id="tspan1">$$$$</tspan></tspan></text><rect
       style="fill:#000000;fill-opacity:1;stroke:#0079ba;stroke-width:0.0997813;paint-order:markers stroke fill"
       id="rect9"
       width="12.674746"
       height="13.153521"
       x="40.342094"
       y="168.21346" /><rect
       style="fill:#000000;fill-opacity:1;stroke:#0079ba;stroke-width:0.0997813;paint-order:markers stroke fill"
       id="rect9-5"
       width="12.674746"
       height="13.153521"
       x="53.316124"
       y="168.21346" /><rect
       style="fill:#000000;fill-opacity:1;stroke:#0079ba;stroke-width:0.0997813;paint-order:markers stroke fill"
       id="rect9-5-9"
       width="12.674746"
       height="13.153521"
       x="66.290154"
       y="168.21346" /><rect
       style="fill:#000000;fill-opacity:1;stroke:#0079ba;stroke-width:0.0997813;paint-order:markers stroke fill"
       id="rect9-2"
       width="12.674746"
       height="13.153521"
       x="40.342094"
       y="182.12807" /><rect
       style="fill:#000000;fill-opacity:1;stroke:#0079ba;stroke-width:0.0997813;paint-order:markers stroke fill"
       id="rect9-5-3"
       width="12.674746"
       height="13.153521"
       x="53.316124"
       y="182.12807" /><rect
       style="fill:#000000;fill-opacity:1;stroke:#0079ba;stroke-width:0.0997813;paint-order:markers stroke fill"
       id="rect9-5-9-6"
       width="12.674746"
       height="13.153521"
       x="66.290154"
       y="182.12807" /><rect
       style="fill:#000000;fill-opacity:1;stroke:#0079ba;stroke-width:0.0997813;paint-order:markers stroke fill"
       id="rect9-7"
       width="12.674746"
       height="13.153521"
       x="40.342094"
       y="196.04268" /><rect
       style="fill:#000000;fill-opacity:1;stroke:#0079ba;stroke-width:0.0997813;paint-order:markers stroke fill"
       id="rect9-5-0"
       width="12.674746"
       height="13.153521"
       x="53.316124"
       y="196.04268" /><rect
       style="fill:#000000;fill-opacity:1;stroke:#0079ba;stroke-width:0.0997813;paint-order:markers stroke fill"
       id="rect9-5-9-8"
       width="12.674746"
       height="13.153521"
       x="66.290154"
       y="196.04268" /><rect
       style="fill:#000000;fill-opacity:1;stroke:#0079ba;stroke-width:0.0997813;paint-order:markers stroke fill"
       id="rect9-5-9-8-9"
       width="12.674746"
       height="13.153521"
       x="53.316124"
       y="209.95729" /><rect
       style="fill:#ff0000;fill-opacity:1;stroke:#0079ba;stroke-width:0.0997813;paint-order:markers stroke fill"
       id="rect9-5-9-8-9-2"
       width="12.674746"
       height="13.153521"
       x="40.342094"
       y="209.95729" /><rect
       style="fill:#07ff00;fill-opacity:1;stroke:#0079ba;stroke-width:0.0997813;paint-order:markers stroke fill"
       id="rect9-5-9-8-9-0"
       width="12.674746"
       height="13.153521"
       x="66.290154"
       y="209.95729" /><rect
       style="fill:#ffffff;fill-opacity:1;stroke:#0079ba;stroke-width:0.132292;paint-order:markers stroke fill"
       id="rect10"
       width="13.43242"
       height="94.351395"
       x="137.55313"
       y="122.18335" /><text
       xml:space="preserve"
       transform="scale(0.26458333)"
       id="text11"
       style="-inkscape-font-specification:'Alegreya Bold';font-family:Alegreya;font-size:72px;line-height:1;letter-spacing:0px;text-align:center;fill:#07ff00;stroke:#0079ba;font-weight:bold;paint-order:markers stroke fill;fill-opacity:1;stroke-width:0.5;white-space:pre;shape-inside:url(#rect11)" /><text
       xml:space="preserve"
       transform="scale(0.26458333)"
       id="text12"
       style="-inkscape-font-specification:'Alegreya Bold';font-family:Alegreya;font-size:72px;line-height:1;letter-spacing:0px;text-align:center;fill:#07ff00;stroke:#0079ba;font-weight:bold;paint-order:markers stroke fill;fill-opacity:1;stroke-width:0.5;white-space:pre;shape-inside:url(#rect12)" /><text
       xml:space="preserve"
       style="font-style:normal;font-variant:normal;font-weight:bold;font-stretch:condensed;font-size:10.5833px;line-height:1;font-family:Arial;-inkscape-font-specification:'Arial Bold Condensed';text-align:center;letter-spacing:0px;text-anchor:middle;white-space:pre;inline-size:180.941;fill:#e58f00;fill-opacity:1;stroke:#0079ba;stroke-width:0.132292;paint-order:markers stroke fill"
       x="-271.88757"
       y="94.308922"
       id="text13"
       transform="rotate(-90,-24.336949,-78.03357)"><tspan
         x="-271.88757"
         y="94.308922"
         id="tspan3">1234 5678 9012 3456</tspan></text></g></svg>
