<?xml version="1.0" encoding="UTF-8" standalone="no"?>
<!-- Created with Inkscape (http://www.inkscape.org/) -->

<svg
   width="540"
   height="540"
   viewBox="0 0 142.87499 142.875"
   version="1.1"
   id="svg1"
   xml:space="preserve"
   inkscape:version="1.3.2 (091e20e, 2023-11-25, custom)"
   sodipodi:docname="Cropping.svg"
   inkscape:export-filename="Super Star.png"
   inkscape:export-xdpi="96"
   inkscape:export-ydpi="96"
   xmlns:inkscape="http://www.inkscape.org/namespaces/inkscape"
   xmlns:sodipodi="http://sodipodi.sourceforge.net/DTD/sodipodi-0.dtd"
   xmlns:xlink="http://www.w3.org/1999/xlink"
   xmlns="http://www.w3.org/2000/svg"
   xmlns:svg="http://www.w3.org/2000/svg"><sodipodi:namedview
     id="namedview1"
     pagecolor="#505050"
     bordercolor="#eeeeee"
     borderopacity="1"
     inkscape:showpageshadow="0"
     inkscape:pageopacity="0"
     inkscape:pagecheckerboard="0"
     inkscape:deskcolor="#505050"
     inkscape:document-units="mm"
     inkscape:zoom="1.0242632"
     inkscape:cx="228.4569"
     inkscape:cy="355.86556"
     inkscape:window-width="1920"
     inkscape:window-height="1009"
     inkscape:window-x="-8"
     inkscape:window-y="-8"
     inkscape:window-maximized="1"
     inkscape:current-layer="layer2" /><defs
     id="defs1"><clipPath
       clipPathUnits="userSpaceOnUse"
       id="clipPath2"><path
         style="fill:#000000;fill-opacity:1;stroke:#0079ba;stroke-width:0.132292;paint-order:markers stroke fill"
         d="m -120.18819,101.92251 c 0.97299,-1.39088 0.77366,1.77691 1.9179,0.45664 1.11025,-1.28106 4.62821,-3.830026 6.21033,-4.383765 1.00844,-0.352954 3.18563,-0.463346 4.2011,-0.54797 2.57092,-0.214244 5.09616,-0.104614 7.67159,-0.182658 3.653255,-0.110704 7.306566,-0.440534 10.959412,-0.547971 2.069216,-0.06086 4.140221,0 6.210331,0 2.108735,0 4.292365,-0.05741 6.39299,0.182658 1.044252,0.119343 2.064681,0.399333 3.105163,0.547971 4.363977,0.623424 8.767085,0.891757 13.151292,1.278599 0.977953,0.08629 1.942671,0.304072 2.922513,0.365315 1.848472,0.115528 5.447877,-0.464341 7.032287,-0.365315 1.772282,0.110768 3.526996,0.43734 5.297045,0.54797 1.534192,0.09588 3.231407,-0.252947 4.749078,0 0.134292,0.02238 0.232413,0.153123 0.365315,0.182656 1.185736,0.263498 2.450548,0.362958 3.653137,0.54797 1.30606,0.20093 2.542572,0.47198 3.835792,0.73063 0.312597,0.0625 0.835358,0.009 1.095941,0.18265 0.345133,0.23009 0.679524,0.99809 0.913286,1.2786 0.366974,0.44037 1.068459,-3.223969 1.461251,-2.831177 0.04305,0.04305 0.15543,-0.05446 0.182658,0 0.05446,0.108916 -0.05446,0.2564 0,0.365313 0.07701,0.15403 0.301358,0.20542 0.365313,0.365314 0.06784,0.16959 -0.0443,0.37077 0,0.54797 0.07952,0.31809 0.285792,0.59519 0.365315,0.91328 0.143709,0.57484 0,1.40915 0,2.00923 0,1.40756 0.229185,3.00866 0,4.38376 -0.178223,1.06934 -0.182657,1.99695 -0.182657,3.10517 0,1.17747 0.16602,2.49099 0,3.65314 -0.0355,0.24851 -0.159928,0.48062 -0.182658,0.73062 -0.103582,1.13943 0.273928,2.74008 0,3.8358 -0.176832,0.70733 -0.185502,1.47264 -0.365313,2.19188 -0.03302,0.13208 -0.155956,0.23181 -0.182658,0.36531 -0.140626,0.70314 0.117978,1.48403 0,2.19188 -0.03165,0.18992 -0.144896,0.35918 -0.182655,0.54797 -0.11135,0.55675 0,1.25715 0,1.82657 0,2.00392 0.301207,4.27488 -0.182658,6.21034 -0.145423,0.58168 -0.617542,1.07848 -0.730625,1.64391 -0.03582,0.17911 0.03582,0.36886 0,0.54797 -0.109652,0.54824 -0.735926,0.92917 -0.913286,1.46125 -0.03851,0.11552 0.05446,0.2564 0,0.36531 -0.511953,1.02392 -1.128131,2.07361 -1.643912,3.10517 -0.368729,0.73746 -0.601115,1.59746 -0.730626,2.37454 -0.19944,1.19664 -0.08021,-0.0222 -0.547971,0.91328 -0.353549,0.7071 -0.400745,1.63231 -0.730628,2.37454 -0.512104,1.15224 -0.993145,2.30021 -1.461254,3.47048 -0.135895,0.33974 -0.488122,0.73686 -0.547971,1.09594 -0.137871,0.82723 -0.04497,1.73109 -0.182657,2.5572 -0.08284,0.49706 -0.266377,0.96658 -0.365313,1.46125 -0.05854,0.29272 0.05854,0.62057 0,0.91329 -0.0267,0.1335 -0.163402,0.23053 -0.182655,0.36531 -0.135824,0.95076 0.08696,1.96595 0,2.92251 -0.02811,0.30918 -0.151768,0.60437 -0.182658,0.91328 -0.140306,1.40305 0.08984,2.8088 0.182658,4.20111 0.03645,0.54676 -0.04961,1.09819 0,1.64391 0.139599,1.5356 0.35655,3.07011 0.730625,4.56642 0.302096,1.20838 0.430276,1.19758 0.547971,2.37454 0.191548,1.91548 -0.07986,3.92829 0,5.84502 0.028,0.67192 0.15067,1.33748 0.182658,2.00923 0.06082,1.27715 0,2.55719 0,3.83579 0,1.52214 0.137808,3.05053 0,4.56642 -0.06163,0.67793 -0.273341,1.33474 -0.365316,2.00922 -0.09086,0.66634 -0.05077,1.34978 -0.182655,2.00923 -0.07611,0.38053 -0.761071,2.18173 -0.913283,2.73985 -0.571061,2.09389 -1.437958,4.15837 -3.287824,5.47971 -0.510093,0.36435 -1.091552,0.61689 -1.643912,0.91328 -1.979403,1.06212 -5.117721,2.9845 -7.671585,3.83579 -2.134119,0.71138 -4.410271,0.89142 -6.575648,1.46126 -0.558593,0.147 -1.077515,0.43469 -1.643912,0.54797 -2.450851,0.49017 -5.019301,0.0233 -7.488928,0.18266 -3.323635,0.21442 -2.263129,0.49874 -5.662363,0.91328 -2.730424,0.33298 -5.482551,0.45693 -8.219557,0.73063 -2.134222,0.21342 -4.254952,0.55958 -6.392987,0.73062 -1.769364,0.14155 -3.536685,-0.10264 -5.297048,-0.18265 -1.216456,-0.0553 -2.435426,0 -3.653139,0 -1.99735,0 -4.627875,0.22915 -6.575639,0 -3.32972,-0.39173 -2.75297,-0.59205 -6.94096,-1.46126 -1.69563,-0.35192 -3.40203,-0.65481 -5.11439,-0.91328 -3.03178,-0.45763 -6.10844,-0.59187 -9.13284,-1.09594 -2.14364,-0.35727 -4.262,-0.8524 -6.39299,-1.2786 -1.21772,-0.24354 -2.45023,-0.42219 -3.65314,-0.73063 -2.64941,-0.67933 6.83724,-2.10204 4.20111,-2.83119 -3.02196,-0.83585 -4.82485,-1.30425 -7.85425,-1.82656 -0.54332,-0.0937 0.53975,0.11246 0,0 -1.85813,-0.38711 -3.16791,-0.87332 -4.93173,-1.46126 -0.64972,-0.21657 -3.64125,-0.3704 -3.10517,-1.09594 2.36525,-3.20113 -1.03943,-4.15675 -1.09594,-4.56642 -0.85154,-6.17369 -1.01652,-12.56859 0.54797,-18.63099 0.98949,-3.83429 1.99367,-7.65932 2.92251,-11.50738 0.47489,-1.96743 1.18035,-3.87489 1.64391,-5.84502 0.24073,-1.02311 0.5245,-0.7046 0.73063,-1.73524 0.45201,-2.26006 0.97417,-4.50553 1.46126,-6.7583 0.23725,-1.09732 0.48708,-2.19188 0.73062,-3.28782 0.30443,-1.15683 0.65681,-2.30209 0.91329,-3.47048 1.35568,-6.17591 1.91048,-12.53172 3.65313,-18.631 0.96194,-3.36679 2.40583,-6.60127 3.65314,-9.86347 4.67114,-12.21681 -2.09632,4.86323 2.19188,-5.66236 0.31996,-0.78536 0.51979,-1.62332 0.91329,-2.37454 0.43891,-0.83792 1.44216,-1.77748 2.00922,-2.55719 0.28408,-0.39061 1.34351,-2.181314 1.82657,-2.374539 0.22612,-0.09045 0.5128,0.108913 0.73063,0 1.43192,-0.715965 2.92318,0.456979 4.2011,1.095939 0.40835,0.20417 1.55527,0.45933 1.82657,0.73063 0.043,0.0431 -0.0507,0.14888 0,0.18265 0.3204,0.2136 -13.1304,-0.90283 -12.78598,-0.73062 0.19635,0.0982 0.34243,0.28823 0.54797,0.36531 1.84949,0.69356 4.27506,0.36531 6.21033,0.36531 0.18266,0 0.37077,-0.0443 0.54797,0 0.31809,0.0795 0.58654,0.39255 0.91329,0.36532 1.33456,-0.57196 0.81491,-0.54797 1.46125,-0.54797"
         id="path2"
         sodipodi:nodetypes="csssssssssssssssscsssssssssssssssssssssscsssssssssssssssssssssssssssscsssssssssssssssscssssscsssssssssccsssscc" /></clipPath><clipPath
       clipPathUnits="userSpaceOnUse"
       id="clipPath4"><path
         style="fill:#000000;fill-opacity:1;stroke:#0079ba;stroke-width:0.132292;paint-order:markers stroke fill"
         d="m 78.268449,15.434502 c 2.617465,0.03206 5.237131,-0.05033 7.854241,0 2.191308,0.04214 4.386146,0.198485 6.57565,0.273985 2.587953,0.08924 5.178761,-0.09133 7.76291,-0.09133 2.86163,0 5.72325,0 8.58488,0 0.85239,0 1.70479,0 2.55719,0 0.36531,0 0.73488,0.05555 1.09594,0 1.00128,-0.154043 0.26701,-0.212635 1.18727,-0.273986 0.87899,-0.0586 1.76907,0.05173 2.64852,0 3.63672,-0.213924 7.31278,-0.09133 10.95941,-0.09133 0.8524,0 1.7048,0 2.5572,0 0.51753,0 1.03822,0.05715 1.55258,0 0.6414,-0.07127 1.27065,-0.300588 1.9179,-0.365314 0.6819,-0.06819 1.41522,0 2.10055,0 0.66018,0 1.7278,-0.07036 2.37454,0.09133 0.0734,0.01835 0.33814,0.338141 0.36532,0.365313 0.26381,0.263818 0.48333,0.51003 0.63929,0.821956 0.0996,0.199169 0,0.865228 0,1.095941 0,0.725573 -0.0427,1.400886 -0.18265,2.100553 -0.0726,0.363171 0,0.811332 0,1.18727 0,1.52214 0,3.04428 0,4.56642 0,0.578969 -0.19889,1.288797 -0.0913,1.826571 0.0913,0.456385 0.21382,0.888642 0.27398,1.369925 0.0934,0.746741 -0.0536,1.532829 0,2.283211 0.16022,2.242976 0.0913,-2.113603 0.0913,2.100554 0,0.639296 0,1.278596 0,1.917895 0,0.287486 0.0558,0.634469 0,0.913284 -0.0134,0.06675 -0.0609,0.121772 -0.0913,0.182658 -0.0304,0.121771 -0.0667,0.242231 -0.0913,0.365312 -0.12184,0.609204 -0.2795,1.144747 -0.45665,1.735241 -0.30688,1.022956 -0.48359,2.09006 -0.82195,3.105166 -0.0431,0.129154 -0.14684,0.233966 -0.18266,0.365313 -0.0566,0.207679 -0.028,0.433554 -0.0913,0.639299 -0.0601,0.195186 -0.20067,0.357365 -0.27398,0.547971 -0.20416,0.53081 -0.29617,1.098301 -0.45665,1.643912 -0.31402,1.067668 -0.92651,2.426943 -1.64391,3.287821 -0.67068,0.804815 -1.56555,1.453364 -2.37453,2.100553 -1.16789,0.934305 -2.40124,1.743456 -3.65314,2.557198 -0.89557,0.582115 -1.72515,1.287926 -2.64853,1.826567 -0.85607,0.499372 -1.80013,0.860891 -2.64852,1.369925 -0.22456,0.134737 -0.41627,0.319395 -0.6393,0.456645 -0.67922,0.417983 -1.4844,0.63006 -2.19188,1.004612 -0.91983,0.486968 -1.76693,1.076682 -2.5572,1.735238 -0.60425,0.503547 -1.35664,0.894694 -1.82656,1.552583 -0.572,0.800793 -0.54797,2.948173 -0.54797,3.927123 0,1.682438 -0.0913,3.341455 -0.0913,5.023062 -0.0914,0.273986 -0.20403,0.541768 -0.2741,0.82196 -0.17552,0.701862 -0.0913,1.47769 -0.0913,2.191882 0,0.692663 -0.0575,1.410959 0,2.100551 0.0611,0.733772 0.22806,1.457005 0.27399,2.191882 0.0611,0.977477 -0.0221,1.953459 -0.0913,2.922511 -0.0152,0.212556 0.0282,0.428067 0,0.639297 -0.0332,0.248838 -0.13903,0.483412 -0.18266,0.730628 -0.0912,0.516911 -0.0598,0.87857 -0.18265,1.369928 -0.25588,1.023498 -0.093,0.09673 -0.36532,1.00461 -0.19002,0.63341 -0.35783,1.284097 -0.54797,1.917898 -0.15407,0.513567 -0.30251,1.038805 -0.45664,1.552583 -0.21715,0.723845 0.0282,0.189511 -0.18266,0.821955 -0.13297,0.398933 -0.0656,-0.06441 -0.27398,0.456644 -0.0226,0.05653 0.0148,0.123587 0,0.182655 -0.0611,0.244314 -0.27924,0.501108 -0.36531,0.730629 -0.17319,0.46183 -0.30267,0.940649 -0.54797,1.369925 -0.17472,0.305752 -0.47922,0.753202 -0.73063,1.004612 -0.4819,0.481894 -2.01558,1.132533 -2.64853,1.278599 -0.49098,0.113305 -0.99166,0.16406 -1.46125,0.365313 -0.10089,0.04324 -0.1731,0.139419 -0.27399,0.182658 -0.0853,0.03654 -0.53266,0.111567 -0.63929,0.182655 -0.17522,0.116811 -0.97149,0.788829 -1.09595,0.913286 -0.13783,0.137835 -0.22107,0.325517 -0.36531,0.456642 -0.71038,0.645803 -0.71002,0.345212 -1.55258,1.004612 -0.42414,0.331936 -0.77204,0.752925 -1.18727,1.095941 -0.28649,0.236667 -0.616,0.416338 -0.91329,0.639297 -0.80903,0.606777 -0.96985,0.846378 -1.826564,1.369928 -0.464677,0.283969 -0.990859,0.456229 -1.461254,0.730628 -0.13148,0.0767 -0.229169,0.205912 -0.365313,0.273984 -0.112268,0.05613 -0.249944,0.04188 -0.365316,0.09133 -0.286136,0.122632 -0.500541,0.301032 -0.821954,0.365313 -1.417593,0.283515 -2.944799,0 -4.383765,0 -0.118864,0 -1.58932,-0.07296 -1.735241,0 -0.447804,0.223905 -1.925971,1.454295 -2.191879,1.826565 -0.07913,0.11079 -0.103527,0.25453 -0.182658,0.36532 -0.07507,0.1051 -0.182658,0.18265 -0.273987,0.27398 -0.09133,0.12177 -0.18955,0.23867 -0.273984,0.36532 -0.300704,0.45105 -0.668996,1.22537 -0.821954,1.73523 -0.08921,0.29737 -0.144151,0.60523 -0.182658,0.91329 -0.01511,0.12083 0.02953,0.24718 0,0.36531 -0.223311,0.89325 -0.163909,-0.14999 -0.273987,0.73063 -0.06896,0.55164 0,1.18245 0,1.73524 0,0.94373 0,1.88745 0,2.83118 0,0.4357 0.08471,0.9464 0,1.36993 -0.100832,0.50416 -1.238353,1.56068 -1.552583,1.82657 -0.43399,0.36722 -0.882263,0.79115 -1.369925,1.09594 -0.261077,0.16317 -0.570743,0.19783 -0.821954,0.36531 -0.422117,0.28141 -0.304065,0.3154 -0.821958,0.45664 -0.463325,0.12636 -0.702098,0.0913 -1.18727,0.0913 -1.447805,0 -2.671852,-0.171 -4.109778,-0.36531 -2.225532,-0.30075 -4.455663,-0.60256 -6.666973,-1.00462 -0.399606,-0.0726 -0.787437,-0.20258 -1.187271,-0.27398 -1.932156,-0.34503 -3.908208,-0.41824 -5.845016,-0.73063 -0.459745,-0.0741 -0.908611,-0.21035 -1.369928,-0.27398 -1.246158,-0.17189 -2.399318,-0.14939 -3.561807,-0.73063 -0.136144,-0.0681 -0.229169,-0.20591 -0.365313,-0.27399 -0.172212,-0.0861 -0.382873,-0.0836 -0.547973,-0.18265 -0.297635,-0.17859 -0.550913,-0.42247 -0.821955,-0.6393 -0.405902,-0.32473 -0.720479,-0.55812 -1.004612,-1.00461 -0.498748,-0.78375 -0.273984,-2.1114 -0.273984,-3.01384 0,-0.47086 0.156681,-1.23056 -0.09133,-1.64391 -0.119898,-0.19984 -0.406482,-0.65303 -0.639297,-0.73063 -0.428347,-0.14278 -3.227993,-0.19966 -3.470481,0.0913 -0.261808,0.31417 -0.367276,0.73455 -0.547971,1.09594 0.09131,0.24356 0.210855,0.47833 0.273929,0.73069 0.113355,0.45354 0.16012,2.61353 0,3.01383 -0.161539,0.40384 -0.247531,0.50829 -0.456642,0.82196 -0.09847,0.1477 -0.148468,0.33112 -0.273986,0.45664 -0.04813,0.0481 -0.128199,0.0505 -0.182658,0.0913 -0.270219,0.20266 -0.617159,0.54889 -0.821955,0.82196 -0.06586,0.0878 -0.133569,0.17581 -0.182658,0.27398 -0.01363,0.0272 0.02154,0.0698 0,0.0913 -0.07761,0.0776 -0.196371,0.10504 -0.273984,0.18266 -0.04814,0.0481 -0.05049,0.12819 -0.09133,0.18265 -0.264467,0.35263 -0.785522,0.89507 -1.187268,1.09594 -0.480935,0.24047 -2.842929,0.0913 -3.379152,0.0913 -1.244259,0 -2.501789,0.054 -3.744463,0 -1.797002,-0.0781 -3.58998,-0.3073 -5.388377,-0.36531 -1.338789,-0.0432 -2.679483,0.0372 -4.018452,0 -0.08127,-0.002 -0.998064,-0.11171 -1.187267,-0.18266 -0.487426,-0.18278 -0.08514,-0.14241 -0.456642,-0.36531 -0.08255,-0.0495 -0.182658,-0.0609 -0.273987,-0.0913 -0.121771,-0.0913 -0.238664,-0.18955 -0.365313,-0.27399 -1.118227,-0.74548 0.310947,0.25597 -1.095941,-0.54797 -0.624435,-0.35682 -1.149234,-0.8729 -1.73524,-1.27859 -0.656775,-0.45469 -0.662662,-0.30627 -1.369926,-0.73063 -0.972102,-0.58326 -1.882438,-1.26248 -2.92251,-1.73524 -0.445176,-0.20235 -0.928827,-0.32742 -1.369926,-0.54797 -1.325089,-0.66255 0.220182,0.0859 -0.730627,-0.54797 -0.120286,-0.0802 -0.336266,-0.12247 -0.456642,-0.18266 -0.119776,-0.0599 -0.103202,-0.17864 -0.182657,-0.27398 -0.110246,-0.1323 -0.243542,-0.24355 -0.365314,-0.36532 -0.05221,-0.20183 -0.42095,-0.32962 -0.54797,-0.45664 -0.318296,-0.3183 -1.112316,-1.74846 -1.278598,-2.19188 -0.04407,-0.11753 -0.03519,-0.25305 -0.09133,-0.36532 -0.03851,-0.077 -0.14415,-0.10564 -0.182657,-0.18265 -0.02723,-0.0545 0.02261,-0.12613 0,-0.18266 -0.04077,-0.10191 -0.133569,-0.17581 -0.182657,-0.27398 -0.146632,-0.29327 -0.236156,-0.61192 -0.365314,-0.91329 -0.191316,-0.4464 0.03693,0.14672 -0.365313,-0.45664 -0.0534,-0.0801 -0.06089,-0.18266 -0.09133,-0.27399 -0.06088,-0.12177 -0.10097,-0.25639 -0.182656,-0.36531 -0.103327,-0.13777 -0.259587,-0.22938 -0.365314,-0.36531 -0.27428,-0.35265 -0.555523,-0.87002 -0.730627,-1.2786 -0.04945,-0.115369 -0.03519,-0.253045 -0.09133,-0.365313 -0.06807,-0.136144 -0.198466,-0.233156 -0.273985,-0.365315 -0.623484,-1.091097 -0.653842,-3.843936 -0.547971,-5.114391 0.05659,-0.679132 0.313251,-1.332402 0.365314,-2.009224 0.01634,-0.212471 -0.01929,-0.427075 0,-0.6393 0.03762,-0.413774 0.166797,-0.393203 0.273985,-0.821955 0.105302,-0.421208 0.224929,-1.019743 0.273986,-1.461256 0.01345,-0.121026 -0.02953,-0.247177 0,-0.365313 0.03302,-0.13208 0.134853,-0.237837 0.182656,-0.365313 0.219946,-0.586523 0.378207,-1.206608 0.730628,-1.735241 0.06982,-0.104722 0.30823,-0.231171 0.365313,-0.273984 0.259255,-0.194442 0.481308,-0.431532 0.730628,-0.639299 0.168644,-0.140536 0.392742,-0.210085 0.54797,-0.365313 0.07761,-0.07761 0.114089,-0.188275 0.182657,-0.273987 0.361512,-0.451889 -0.01804,0.109374 0.456642,-0.365312 0.219488,-0.219488 0.364998,-0.570368 0.547971,-0.821955 0.243542,-0.334873 0.54545,-0.634262 0.730627,-1.004615 0.107767,-0.215532 0.07489,-0.423762 0.182657,-0.639297 0.03851,-0.07702 0.138356,-0.108823 0.182657,-0.182658 0.119283,-0.198805 0.200669,-0.419351 0.273985,-0.639299 0.04909,-0.147262 0.04224,-0.30938 0.09133,-0.456642 0.164723,-0.494167 0.408015,-1.01768 0.456642,-1.552583 0.108622,-1.194834 0,-2.454243 0,-3.653136 0,-2.070111 0,-4.140221 0,-6.210332 0,-0.499708 0.0973,-1.264084 0.273985,-1.735241 0.03854,-0.102772 0.147947,-0.169854 0.182657,-0.273984 0.02888,-0.08664 -0.01791,-0.18443 0,-0.273986 0.08705,-0.435248 0.460925,-0.847651 0.547971,-1.369925 0.0235,-0.140986 -0.02106,-1.243463 -0.09133,-1.278599 -0.05446,-0.02723 -0.128199,0.02723 -0.182656,0 -0.01508,-0.0075 0,-0.249685 0,-0.273984 0,-0.14473 -0.09133,-0.200621 -0.09133,-0.365313 0.121773,-0.21308 0.274165,-0.411374 0.365319,-0.639239 0.03392,-0.0848 -0.01009,-0.183216 0,-0.273986 0.062,-0.55802 0.05636,-1.084414 0.09133,-1.643912 -0.02928,-0.527381 0.147994,-1.03264 0.182657,-1.552583 0.04848,-0.727255 -0.05193,-1.46489 0,-2.191883 0.06476,-0.906621 0.405387,-1.835422 0.730627,-2.648524 0.08653,-0.216323 0.09613,-0.422973 0.182657,-0.639299 0.226495,-0.566238 0.680518,-1.043292 1.004613,-1.552583 0.131769,-0.207066 0.218051,-0.442947 0.365313,-0.639297 0.362564,-0.48342 0.824706,-0.886508 1.18727,-1.369928 0.545276,-0.727035 1.112333,-1.455851 1.643911,-2.191882 0.502889,-0.696307 0.857817,-1.509067 1.369926,-2.19188 1.986553,-2.317644 -0.433208,0.577612 0.821957,-1.095941 0.43374,-0.578324 1.085403,-0.859719 1.643912,-1.278599 0.224533,-0.168402 0.38826,-0.42245 0.639297,-0.547971 0.13884,-0.06942 0.30938,-0.04224 0.456642,-0.09133 0.28444,-0.09481 0.557966,-0.223165 0.821957,-0.365315 0.252867,-0.13616 0.477218,-0.32149 0.730628,-0.456642 1.402826,-0.748173 2.873404,-1.391039 4.292434,-2.100553 0.595373,-0.297686 1.139129,-0.706557 1.73524,-1.004613 1.28356,-0.641778 0.346967,-0.111842 1.552583,-0.639299 0.561282,-0.24556 1.090774,-0.558557 1.643912,-0.821955 0.33211,-0.158147 0.689189,-0.267388 1.004612,-0.456642 0.297638,-0.178583 0.535491,-0.443296 0.821955,-0.639299 0.293002,-0.200475 0.613119,-0.358391 0.913286,-0.547971 0.600194,-0.379071 1.135041,-0.808196 1.735238,-1.18727 2.234618,-1.411335 -0.620564,0.552217 1.643912,-1.004612 0.46663,-0.320807 0.898763,-0.690502 1.369925,-1.004612 0.204219,-0.136144 0.437502,-0.225608 0.6393,-0.365313 0.534942,-0.370346 1.066183,-0.846241 1.552582,-1.278599 0.386596,-0.343641 0.41007,-0.483495 0.821958,-0.730626 0.822108,-0.493265 1.674939,-0.998934 2.465866,-1.552583 0.601866,-0.421309 1.138161,-0.94846 1.735241,-1.369928 0.290039,-0.204732 0.620281,-0.347496 0.913283,-0.547968 1.395434,-0.954772 2.649104,-2.116196 4.01845,-3.105167 0.232825,-0.168151 0.49903,-0.286805 0.730628,-0.456642 0.662874,-0.486109 1.300983,-1.012784 1.917896,-1.552583 0.738809,-0.646458 1.673566,-1.067692 2.465866,-1.643912 0.550521,-0.400379 1.055,-0.942077 1.643912,-1.278598 0.415732,-0.23756 0.937654,-0.271382 1.369928,-0.456642 0.100888,-0.04324 0.173095,-0.139419 0.273984,-0.182656 0.89898,-0.385278 -0.182536,0.247822 0.730628,-0.273986 0.0953,-0.05446 0.168444,-0.152502 0.273984,-0.182657 0.117086,-0.03345 0.248227,0.03345 0.365313,0 0.105542,-0.03015 0.175813,-0.133569 0.273987,-0.182656 0.295722,-0.147862 0.284837,-0.02555 0.54797,-0.09133 0.354997,-0.08875 0.660424,-0.433241 1.004612,-0.54797 0.08664,-0.02888 0.189191,0.03392 0.273987,0 0.07995,-0.03198 0.102709,-0.150678 0.182655,-0.182657 0.0848,-0.03392 0.183899,0.01501 0.273987,0 0.233741,-0.03896 0.44259,-0.208416 0.639297,-0.273985 0.394419,-0.131473 0.874075,-0.172854 1.278599,-0.273986 0.258746,-0.06469 0.394536,-0.151603 0.639299,-0.273985 0.07306,-0.03653 0.200922,0.03653 0.273984,0 0.07702,-0.03851 0.105643,-0.144149 0.182658,-0.182657 0.09914,-0.04957 0.447289,-0.08197 0.54797,-0.182656 0.04813,-0.04814 0.03469,-0.144898 0.09133,-0.182657 0.05066,-0.03377 0.124897,0.01925 0.182658,0 0.08169,-0.02723 0.105643,-0.14415 0.182658,-0.182657 0.05446,-0.02723 0.124894,0.01925 0.182655,0 0.386315,-0.128772 0.166722,-0.112782 0.730626,0 z"
         id="path5" /></clipPath><clipPath
       clipPathUnits="userSpaceOnUse"
       id="clipPath7"><path
         style="fill:#000000;fill-opacity:1;stroke:#0079ba;stroke-width:0.132292;paint-order:markers stroke fill"
         d="m 52.42251,21.736162 c 2.409788,0.136034 4.844629,0.439221 7.214944,0.913284 0.456641,0.09133 0.92388,0.140172 1.369925,0.273985 1.042159,0.312648 2.03953,0.941354 3.105168,1.18727 1.210559,0.27936 2.455572,0.462686 3.653137,0.821956 0.470633,0.14119 0.913744,0.376903 1.369925,0.54797 0.535215,0.200705 1.128546,0.290288 1.643912,0.547971 0.51953,0.259765 1.030137,0.560733 1.552583,0.821956 0.198226,0.09911 0.441068,0.08354 0.639297,0.182655 0.332372,0.166188 0.590645,0.454933 0.913286,0.6393 0.570722,0.326128 1.179028,0.559332 1.73524,0.913283 0.71015,0.451917 1.357292,0.969711 2.100554,1.369928 1.304838,0.702607 2.826361,0.854398 4.201107,1.369925 0.595805,0.22343 1.268685,0.517658 1.826567,0.821958 0.913162,0.498086 -0.238495,0.05853 0.821955,0.54797 2.08321,0.96148 -0.807818,-0.594286 1.55258,0.821955 0.175117,0.105068 0.365318,0.182658 0.547973,0.273984 0.213101,0.09133 0.439034,0.157165 0.6393,0.273986 0.168375,0.09822 0.291343,0.262001 0.456639,0.365313 0.01704,0.01064 0.415237,0.12055 0.456644,0.182658 0.03377,0.05066 -0.01926,0.124897 0,0.182658 0.04898,0.146926 0.279149,0.144735 0.365313,0.273984 0.331692,0.497535 0.810477,0.898932 1.18727,1.369925 0.04253,0.05316 0.06089,0.121772 0.09133,0.182658 0.121772,0.152214 0.227478,0.318807 0.365315,0.456641 0.07761,0.07762 0.196372,0.105043 0.273984,0.182658 0.164452,0.164449 0.252397,0.411808 0.456642,0.547971 0.518695,0.345794 1.09755,0.640104 1.643912,0.913283 0.19585,0.09792 0.792001,0 1.004612,0 0.213432,0 0.619567,0.06746 0.821958,0 1.027027,-0.342342 0.730625,-2.038651 0.730625,-2.831182 0,-0.374057 0.05309,-0.815657 0,-1.187267 -0.04345,-0.304139 -0.139208,-0.609148 -0.182655,-0.913286 -0.05597,-0.391777 0.04624,-0.794224 0,-1.187268 -0.02933,-0.249319 -0.136395,-0.483891 -0.182658,-0.730628 -0.09603,-0.512173 -0.08046,-1.041606 -0.182657,-1.552583 -0.200531,-1.002652 -0.190133,-0.08971 -0.273984,-1.095941 -0.06298,-0.755806 0.05817,-1.527008 0,-2.283209 -0.0096,-0.12515 -0.07747,-0.240564 -0.09133,-0.365315 -0.04937,-0.444312 -0.03691,-1.018401 0,-1.461255 0.05584,-0.670017 0.316635,-1.874318 0.6393,-2.465867 0.09334,-0.171127 0.260659,-0.292188 0.365312,-0.456642 0.164301,-0.258186 0.283949,-0.702066 0.547971,-0.913284 0.456983,-0.365587 1.327409,-0.714594 1.917896,-0.821956 0.437121,-0.07948 2.067197,-0.05316 2.465868,0 0.2753,0.03671 0.96419,0.370845 1.18727,0.456642 0.68504,0.263478 0.66548,0.150086 1.46125,0.547971 0.47189,0.235942 1.16182,0.789154 1.64391,1.095941 0.53829,0.342543 1.07296,0.676272 1.55259,1.095941 0.61237,0.535828 1.06749,1.250149 1.64391,1.826568 0.54967,0.549668 1.18826,1.005609 1.73524,1.552582 0.13783,0.137838 0.22748,0.318807 0.36531,0.456642 0.13784,0.137837 0.32714,0.219623 0.45664,0.365316 0.11794,0.132672 0.16748,0.314632 0.27399,0.456641 0.20438,0.272505 0.51232,0.468657 0.73062,0.730629 0.35334,0.424 0.58918,0.924277 0.91329,1.369925 0.46673,0.641757 1.04528,1.217811 1.55258,1.826567 0.11352,0.136226 0.39723,0.641511 0.45665,0.730628 0.32515,0.48773 0.76066,0.900539 1.09594,1.369925 0.15826,0.221573 0.23308,0.492604 0.36531,0.730629 0.48549,0.873879 1.10556,1.663149 1.55258,2.557195 0.25179,0.503571 0.38866,1.051311 0.6393,1.552583 0.32085,0.641694 0.70548,1.269762 1.00461,1.917896 0.20864,0.265676 0.14491,0.622847 0.27399,0.913286 0.15606,0.351139 0.33877,0.468323 0.45664,0.821954 0.0491,0.147262 0.0422,0.30938 0.0913,0.456642 0.043,0.129159 0.1396,0.236157 0.18266,0.365316 0.0539,0.161837 -0.0336,0.380052 0,0.54797 -0.021,0.183399 0.14289,0.297596 0.18265,0.456642 0.0369,0.147669 -0.0189,0.305602 0,0.456642 0.0515,0.411842 0.22251,0.775425 0.27399,1.18727 0.0765,0.612375 0,1.300022 0,1.917896 0,0.689869 0.0526,1.416864 0,2.100553 -0.032,0.415975 -0.21814,0.977461 -0.36531,1.369925 -0.0478,0.127477 -0.14526,0.234408 -0.18266,0.365316 -0.0251,0.08781 0.0339,0.189187 0,0.273984 -0.032,0.07995 -0.14415,0.105643 -0.18266,0.182658 -0.0272,0.05446 0.0226,0.126124 0,0.182655 -0.0408,0.101912 -0.13357,0.17581 -0.18266,0.273986 -0.0431,0.08611 -0.0418,0.191434 -0.0913,0.273984 -0.0443,0.07383 -0.14415,0.105643 -0.18266,0.182658 -0.0561,0.112268 -0.0419,0.249944 -0.0913,0.365313 -0.0432,0.100888 -0.13357,0.17581 -0.18266,0.273986 -0.11039,0.220793 -0.0949,0.405205 -0.18265,0.639297 -0.15053,0.401413 -0.30612,0.78586 -0.45665,1.18727 -0.16003,0.426763 -0.2336,1.420879 -0.54797,1.735241 0.33942,0.752438 -0.17949,1.924262 0.18264,2.648524 0.0385,0.07702 0.15068,0.102709 0.18266,0.182658 0.0339,0.0848 -0.0251,0.186169 0,0.273984 0.0374,0.130905 0.13485,0.237839 0.18266,0.365313 0.10961,0.292298 0.13228,0.629875 0.27398,0.913286 0.17799,0.355978 0.42011,0.712364 0.54797,1.095941 0.0397,0.119076 0.0419,0.249941 0.0913,0.365313 0.10721,0.160814 0.20378,0.28112 0.27399,0.456642 0.16668,0.416711 0.3552,0.832154 0.6393,1.18727 0.22652,0.283154 0.17791,0.08184 0.36531,0.456642 0.1439,0.287792 0.23837,0.61709 0.36531,0.913283 0.34344,0.801351 0.69842,1.558031 1.00462,2.37454 0.24017,0.640456 0.10034,0.109358 0.36531,0.639297 0.21335,0.426709 0.30948,0.837107 0.45664,1.278599 0.17756,0.53268 0.46263,1.022583 0.6393,1.552583 0.0274,0.0822 -0.0274,0.191788 0,0.273984 0.22319,0.66957 0.003,-0.850985 0.27398,0.913286 0.0232,0.150442 -0.0272,0.306882 0,0.456642 0.0344,0.189431 0.1449,0.359172 0.18266,0.54797 0.25841,1.292022 0.33115,2.62617 0.54797,3.927121 0.28895,1.733669 0.45664,3.454368 0.45664,5.205719 0,0.405305 0.0664,0.880002 0,1.278599 -0.0818,0.490932 -0.33205,0.938101 -0.54797,1.369925 -0.29704,0.594096 -0.52454,1.231755 -0.82195,1.82657 -0.14017,0.280336 -0.3253,0.537374 -0.45664,0.821954 -0.0929,0.201229 -0.0927,0.436775 -0.18266,0.6393 -0.29585,0.66567 -0.58749,1.35763 -0.91328,2.009225 -0.0794,0.158771 -0.2019,0.294431 -0.27399,0.456641 -0.1925,0.433115 -0.24746,0.951556 -0.45664,1.369928 -0.32867,0.657334 -0.97836,1.134761 -1.2786,1.735238 -0.0939,0.187862 -0.64806,0.423757 -0.82196,0.547971 -0.54065,0.38618 -1.11362,0.755967 -1.73524,1.004612 -0.38224,0.152898 -0.83774,0.146862 -1.18727,0.365313 -0.31085,0.194289 -0.51694,0.527288 -0.82195,0.730628 -0.16992,0.113279 -0.38067,0.156874 -0.54797,0.273987 -0.14108,0.09876 -0.24354,0.243541 -0.36531,0.365313 -0.15222,0.121772 -0.29446,0.257185 -0.45665,0.365313 -1.83214,1.04694 0.41652,-0.312391 -1.09594,0.821957 -0.33021,0.247655 -0.82448,0.43775 -1.18727,0.6393 -0.13306,0.0739 -0.22091,0.22585 -0.36531,0.27398 -0.23105,0.077 -0.48709,0 -0.73063,0 -0.59717,0 -1.14223,0.032 -1.73524,0.0913 -0.38076,0.0381 -0.81229,-0.075 -1.18727,0 -0.0667,0.0133 -0.11661,0.0748 -0.18265,0.0913 -0.27911,0.0698 -0.63053,-0.0404 -0.91329,0 -0.2194,0.0313 -0.42069,0.14622 -0.6393,0.18266 -0.12011,0.02 -0.24718,-0.0295 -0.36531,0 -0.39592,0.099 -0.76113,0.36531 -1.18727,0.36531 -0.33486,0.0609 -0.66709,0.13869 -1.00458,0.18272 -0.88074,0.1149 -1.80306,0.13959 -2.64853,0.45664 -0.10277,0.0385 -0.17581,0.13357 -0.27398,0.18266 -0.409705,0.20485 -1.317945,0.61682 -1.735238,0.73062 -0.510731,0.13929 -1.045983,0.21334 -1.552583,0.36532 -0.260805,0.0782 -0.481809,0.25472 -0.730629,0.36531 -0.400669,0.17808 -0.692816,0.19336 -1.095941,0.27399 -0.826092,0.16521 0.248071,0.009 -0.273984,0.18265 -0.05776,0.0193 -0.124896,-0.0192 -0.182658,0 -0.131349,0.0438 -0.264064,0.26407 -0.365312,0.36532 -0.06089,0.0609 -0.150678,0.10271 -0.182658,0.18265 -0.02355,0.0589 -0.136729,0.84386 -0.182658,1.00462 -0.167071,0.58475 -0.399886,1.14291 -0.547968,1.73524 -0.256146,1.02458 -0.395237,2.09899 -0.730628,3.10516 -0.06458,0.19374 -0.209407,0.35424 -0.273987,0.54797 -0.02888,0.0866 0.01503,0.1839 0,0.27399 0.155221,0.2472 -0.139602,0.23615 -0.182655,0.36531 -0.01926,0.0578 0.01476,0.12359 0,0.18266 -0.03455,0.13819 -0.148108,0.31844 -0.182658,0.45664 -0.08266,0.33065 -0.09983,0.69983 -0.273986,1.00461 -0.03377,0.0591 -0.13452,0.0432 -0.182655,0.0913 -0.137835,0.13784 -0.248357,0.3007 -0.365313,0.45664 -0.457071,0.60943 -1.026306,0.97477 -1.735241,1.2786 -0.239072,0.10246 -0.501123,0.15158 -0.730628,0.27399 -0.605232,0.32279 -0.521589,0.42873 -1.004613,0.73062 -0.238826,0.14927 -0.594368,0.21359 -0.821954,0.36532 -0.271619,0.18108 -0.4274,0.39635 -0.730629,0.54797 -0.383333,0.19166 -0.675624,0.14444 -1.095941,0.18265 -1.064011,0.0967 0.08555,0.0692 -0.821954,0.18266 -0.12083,0.0151 -0.243544,0 -0.365313,0 -0.152215,0.0304 -0.302975,0.0694 -0.456642,0.0913 -0.780886,0.11155 -1.701641,-0.0219 -2.465869,-0.0913 -0.730147,-0.0664 -1.465445,-0.0836 -2.19188,-0.18266 -0.278095,-0.0379 -0.54556,-0.13388 -0.821957,-0.18265 -1.274942,-0.22499 -2.558539,-0.23759 -3.835794,-0.36532 -0.413353,-0.0413 -0.871519,0.0814 -1.278597,0 -0.360412,-0.0721 -0.223162,-0.14482 -0.639299,-0.18265 -0.212225,-0.0193 -0.426614,0.0133 -0.639299,0 -1.871827,-0.11699 0.03157,-0.0425 -1.369926,-0.18266 -0.512434,-0.0512 -1.039294,0.0428 -1.552583,0 -0.214521,-0.0179 -0.424669,-0.0748 -0.639299,-0.0913 -1.351759,-0.10398 -2.754138,0 -4.109778,0 -0.98238,0 -2.039009,-0.10831 -3.013837,0 -1.219457,0.1355 -2.416646,0.3536 -3.653137,0.45664 -1.288941,0.10742 -2.634311,0 -3.927123,0 -1.979123,0 -3.97742,0.0622 -5.936345,-0.18265 -0.38567,-0.0482 -0.649637,-0.24699 -1.004615,-0.36532 -0.358045,-0.11935 -0.740444,-0.13178 -1.095941,-0.27398 -0.06089,-0.0304 -0.121769,-0.0609 -0.182655,-0.0913 -0.03044,-0.0304 -0.05282,-0.0721 -0.09133,-0.0913 -0.172209,-0.0861 -0.369202,-0.11115 -0.54797,-0.18266 -0.817518,-0.327 -1.556134,-0.85027 -2.374538,-1.18726 -0.768948,-0.31663 -1.591162,-0.46951 -2.37454,-0.73063 -1.313143,-0.43772 -0.04949,-0.0829 -1.095941,-0.54797 -0.1147,-0.051 -0.253045,-0.0352 -0.365313,-0.0913 -0.319887,-0.15994 -0.490411,-0.49041 -0.730626,-0.73063 -0.04813,-0.0481 -0.128201,-0.0505 -0.182658,-0.0913 -0.204028,-0.15302 -0.340521,-0.39979 -0.54797,-0.54797 -0.439201,-0.31371 -0.89562,-0.5848 -1.369928,-0.82195 -0.278138,-0.13907 -0.433832,-0.52516 -0.639297,-0.73063 -0.324421,-0.32442 -0.70639,-0.49949 -0.913286,-0.91328 -0.152212,-0.1827 -0.311661,-0.3596 -0.456639,-0.54809 -0.15966,-0.20758 -0.293047,-0.43481 -0.456642,-0.6393 -0.127328,-0.15916 -0.568372,-0.42653 -0.639299,-0.6393 -0.01924,-0.0578 0.02723,-0.1282 0,-0.18266 -0.09704,-0.19408 -0.38408,-0.33028 -0.456642,-0.54797 -0.01926,-0.0578 0.01926,-0.1249 0,-0.18266 -0.04461,-0.13384 -0.220811,-0.20579 -0.273984,-0.36531 -0.0919,-0.27569 -0.0073,-0.56986 -0.09133,-0.82196 -0.118535,-0.3556 -0.271465,-0.72055 -0.365312,-1.09594 -0.02781,-0.11124 0.04211,-0.26003 0,-0.36531 -0.151689,-0.37922 -0.392462,-0.71827 -0.547971,-1.09594 -0.109963,-0.26705 -0.155469,-0.55859 -0.273987,-0.82196 -0.15653,-0.34785 -0.351716,-0.67752 -0.54797,-1.00461 -0.07831,-0.13052 -0.214024,-0.22541 -0.273984,-0.36531 -0.03257,-0.076 -0.128908,-0.87024 -0.182658,-1.004617 -0.04076,-0.101912 -0.147947,-0.169854 -0.182655,-0.273984 -0.05575,-0.167248 0.04273,-0.377039 0,-0.54797 -0.107754,-0.431014 -0.300704,-0.91766 -0.365316,-1.369928 -0.01722,-0.120547 0.02643,-0.246441 0,-0.365313 -0.07113,-0.320072 -0.261627,-0.602231 -0.365312,-0.913283 -0.427107,-1.281325 -0.631807,-3.487965 -0.09133,-4.749078 0.295968,-0.690594 1.749255,-2.388555 2.283208,-2.922511 0.182801,-0.182801 0.432703,-0.227581 0.6393,-0.365313 0.190984,-0.127323 1.481881,-1.37583 1.552583,-1.552583 0.03392,-0.0848 -0.01791,-0.18443 0,-0.273986 0.0267,-0.133498 0.155956,-0.231812 0.182658,-0.365313 0.116514,-0.582573 0,-1.961507 0,-2.648524 0,-1.055124 0.07512,-2.144811 0,-3.196495 -0.04147,-0.580544 -0.225642,-1.155121 -0.273987,-1.735238 -0.121798,-1.461601 -0.273558,-2.915679 -0.365313,-4.383765 -0.0433,-0.692745 0,-1.405795 0,-2.100553 0,-0.509673 -0.05067,-1.045861 0,-1.552583 0.03387,-0.338672 0.148791,-0.665941 0.182658,-1.004613 0.106481,-1.064829 0.05296,-2.155317 0.365313,-3.196495 0.197344,-0.657812 0.490767,-1.278268 0.730628,-1.917895 0.08814,-0.235056 0.07039,-0.506093 0.182655,-0.730629 0.03851,-0.07701 0.148738,-0.103513 0.182658,-0.182655 0.06115,-0.142679 0.04224,-0.30938 0.09133,-0.456644 0.437716,-1.313143 0.08288,-0.04949 0.547973,-1.095939 0.05098,-0.114702 0.06088,-0.243543 0.09133,-0.365315 0.06089,-0.152212 0.109342,-0.31001 0.182658,-0.456642 0.07939,-0.158771 0.208057,-0.291827 0.273984,-0.456642 0.05765,-0.144126 0.04672,-0.307959 0.09133,-0.456641 0.249926,-0.833091 0.09546,-0.102362 0.365313,-0.821955 0.04407,-0.117528 0.0352,-0.253047 0.09133,-0.365315 0.107892,-0.215784 0.413636,-0.34647 0.54797,-0.547971 0.151038,-0.226557 0.23022,-0.494215 0.365313,-0.730626 0.338397,-0.592195 0.75606,-1.126461 1.18727,-1.643912 0.109541,-0.13145 0.241195,-0.423852 0.365313,-0.54797 0.30506,-0.305059 0.821809,-0.365168 1.095941,-0.6393 0.213101,-0.182657 0.452832,-0.338195 0.639297,-0.54797 0.06396,-0.07195 0.0418,-0.191437 0.09133,-0.273984 0.0886,-0.147672 0.261988,-0.227547 0.365316,-0.365316 0.1197,-0.159599 0.09056,-0.272454 0.182655,-0.456641 0.155355,-0.310709 0.385794,-0.559036 0.456644,-0.913284 0.09309,-0.465436 0.238758,-1.025488 0.456642,-1.461254 0.117679,-0.23536 0.305324,-0.437544 0.456642,-0.639299 0.120552,-0.16074 0.153429,-0.387234 0.273984,-0.547971 0.05166,-0.06888 0.150677,-0.102709 0.182657,-0.182658 0.03392,-0.0848 -0.02888,-0.187343 0,-0.273984 0.07817,-0.234519 0.494247,-0.698394 0.547971,-0.913283 0.02215,-0.0886 -0.01791,-0.184431 0,-0.273987 0.04811,-0.24057 0.218927,-0.482867 0.273984,-0.730628 0.112723,-0.507246 0.137332,-1.051518 0.273987,-1.552583 0.04313,-0.158163 0.121769,-0.304427 0.182657,-0.456642 0.06089,-0.273984 0.121769,-0.547971 0.182655,-0.821954 0.162333,-0.730494 0.250947,-1.471954 0.456642,-2.191883 0.208092,-0.728324 0.364609,-1.458431 0.547971,-2.191882 0.22697,-0.907881 0.53503,-1.801432 0.639299,-2.739851 0.04934,-0.444055 0.01844,-0.932674 0.09133,-1.369928 0.03165,-0.189917 0.135962,-0.361182 0.182658,-0.54797 0.112945,-0.451781 0.197427,-0.910577 0.273984,-1.369925 0.252105,-1.512626 0.180295,-3.095715 0.547973,-4.566423 0.165108,-0.66044 0.749639,-1.371796 1.00461,-2.009225 0.289216,-0.723038 0.426796,-1.624607 0.821957,-2.283209 0.0443,-0.07383 0.134895,-0.111013 0.182658,-0.182657 0.175781,-0.263672 0.296918,-0.690799 0.547968,-1.004612 0.656926,-0.821154 -0.231244,0.322573 0.365315,-0.273986 0.195792,-0.195792 0.04711,-0.480194 0.365313,-0.639298 0.77983,-0.389915 1.62969,-0.913284 2.557195,-0.913285 z"
         id="path7" /></clipPath><clipPath
       clipPathUnits="userSpaceOnUse"
       id="clipPath8"><path
         style="fill:#000000;fill-opacity:1;stroke:#0079ba;stroke-width:0.132292;paint-order:markers stroke fill"
         d="m 65.612203,40.555574 c -0.678063,-1.16345 -1.706962,-1.977607 -2.583156,-2.97063 -0.245033,-0.277704 -0.393785,-0.632714 -0.64579,-0.904106 -0.311412,-0.335367 -0.74028,-0.552524 -1.033264,-0.904105 -0.273862,-0.328636 -0.660545,-2.383866 -0.774946,-2.841474 -0.09955,-0.3982 -0.388488,-0.777983 -0.516633,-1.16242 -0.321996,-0.965989 -0.148011,-1.977901 -0.258316,-2.970631 -0.04398,-0.395845 -0.196326,-0.790487 -0.258315,-1.162423 -0.216567,-1.299396 0.102113,-3.276974 0.516631,-4.520525 0.107352,-0.322052 -0.07411,-2.638204 0,-2.712315 0.06089,-0.06089 0.1813,0.03851 0.258315,0 0.77352,-0.38676 1.277321,-0.414591 2.195685,-0.516631 0.585946,-0.0651 1.078312,-0.258316 1.679053,-0.258316 1.039572,0 3.967531,-0.218547 4.778841,0.129158 0.396126,0.169768 0.446363,0.371968 0.774949,0.645789 0.476541,0.397118 1.11261,0.595981 1.549895,1.033263 0.0733,0.07331 0.897649,1.152738 0.904105,1.162421 0.07552,0.113279 0.04747,0.278558 0.129156,0.387473 0.05776,0.07701 0.190243,0.06109 0.258315,0.129158 0.06807,0.06807 0.0714,0.181301 0.129159,0.258316 0.129479,0.17264 1.799233,1.586963 1.937367,1.679052 0.113281,0.07552 0.274193,0.05364 0.387474,0.129158 0.202639,0.135093 0.344421,0.344421 0.516633,0.516632 0.258316,0.258316 0.546738,0.489685 0.774947,0.774947 0.163314,0.204144 0.287554,0.622231 0.51663,0.774949 0.298532,0.199019 0.594074,0.619929 0.904105,0.774946 0.121772,0.06089 0.274196,0.05364 0.387475,0.129159 0.151979,0.101319 0.24879,0.268602 0.387474,0.387474 0.602528,0.516451 1.211215,1.027523 1.80821,1.549892 0.162002,0.141753 0.364416,0.23526 0.516631,0.387474 0.109762,0.109763 0.140459,0.286454 0.258315,0.387475 0.190601,0.163372 0.444961,0.236849 0.64579,0.387474 0.292251,0.219186 0.489683,0.546738 0.774949,0.774946 0.261374,0.2091 0.334867,0.07176 0.645787,0.258316 0.208838,0.125301 0.326456,0.364492 0.516633,0.516633 0.196027,0.156821 0.468278,0.209963 0.64579,0.387472 0.06807,0.06807 0.06108,0.190243 0.129156,0.258315 0.06807,0.06807 0.172212,0.08611 0.258318,0.129159 0.129154,0.172209 0.23526,0.364419 0.387472,0.516631 0.121772,0.121771 0.344421,0 0.516633,0 0.344197,0 0.738709,0.09175 1.033259,-0.129157 0.487561,-0.365672 0.518779,-0.606311 0.774951,-1.033264 0.172998,-0.288332 0.450345,-0.501327 0.64579,-0.774946 0.964274,-1.349991 -0.343712,0.504619 0.387472,-0.774949 0.309602,-0.541805 0.855223,-0.984379 1.291579,-1.420735 0.795949,-0.795954 1.3242,-1.856923 2.195682,-2.583159 0.355714,-0.296426 0.806709,-0.478518 1.162423,-0.774946 0.233868,-0.194891 0.402246,-0.463134 0.64579,-0.64579 1.008671,-0.756503 -0.807826,0.82387 0.645787,-0.387474 1.110575,-0.925477 -0.64629,0.282165 1.162423,-1.033263 0.20302,-0.147653 0.44763,-0.233351 0.645787,-0.387474 0.192241,-0.14952 0.324392,-0.367111 0.516633,-0.516631 0.349885,-0.272132 0.821902,-0.362025 1.162418,-0.64579 0.119253,-0.09937 0.148553,-0.27771 0.258318,-0.387473 0.121092,-0.121091 0.402066,-0.215624 0.516631,-0.387474 0.369567,-0.554347 0.52315,-0.725179 1.033264,-1.162421 0.23114,-0.198119 0.392487,-0.476923 0.645787,-0.645789 0.41641,-0.277606 1.70783,-0.387474 2.19569,-0.387474 0.81944,0 1.64759,-0.05694 2.454,0.129158 1.30424,0.300979 2.89849,1.395149 3.74557,2.454 0.26404,0.330042 0.55173,1.983671 0.64579,2.453999 0.0948,0.474199 0.4349,0.93032 0.51664,1.420737 0.0354,0.212336 -0.0354,0.433456 0,0.64579 0.0584,0.350191 0.21428,0.680984 0.25831,1.033264 0.0427,0.341759 -0.0487,0.692303 0,1.033261 0.062,0.433848 0.31536,0.858896 0.38747,1.291579 0.0791,0.474322 0.14103,0.951577 0.25832,1.420739 0.19164,0.766535 0.77322,1.288706 1.16242,1.937366 0.1453,0.242171 0.22603,0.548921 0.38747,0.774949 0.14156,0.198178 0.40772,0.298799 0.51664,0.516631 0.12177,0.243541 0.13654,0.531405 0.25831,0.774946 0.37696,0.753925 0.76193,1.51085 1.03327,2.324843 0.41865,1.255972 -0.0552,2.713652 0.12915,4.003895 0.22325,1.562719 0.12916,3.189719 0.12916,4.778841 0,0.749016 0.1052,1.588423 0,2.32484 -0.009,0.06027 -0.1099,0.0714 -0.12916,0.129159 -0.0766,0.229929 -0.0525,0.545021 -0.12915,0.774946 -0.0385,0.115523 -0.19077,0.156999 -0.25832,0.258318 -0.0738,0.110694 -0.50306,0.978967 -0.51663,1.033262 -0.0209,0.08353 0.0385,0.1813 0,0.258315 -0.0545,0.108916 -0.19077,0.156996 -0.25832,0.258318 -0.1068,0.1602 -0.15151,0.356431 -0.25831,0.516631 -0.20983,0.314746 -0.58096,0.580782 -0.77495,0.904105 -0.07,0.116742 -0.0591,0.27073 -0.12916,0.387474 -0.72079,1.201325 0.25886,-0.90519 -0.51663,0.645787 -0.0193,0.03851 0,0.08611 0,0.129159 -0.0431,0.08611 -0.0714,0.181301 -0.12916,0.258316 -0.14612,0.194834 -0.36449,0.326456 -0.51663,0.516633 -0.32079,0.400981 -0.60563,0.873715 -0.9041,1.291577 -0.23608,0.330504 -0.38578,0.721243 -0.64579,1.033264 -0.0575,0.06901 -0.69235,0.563189 -0.77495,0.64579 -0.0304,0.03044 0.0304,0.09871 0,0.129156 -0.0304,0.03044 -0.0987,-0.03044 -0.12916,0 -0.0304,0.03044 0.0193,0.09065 0,0.129159 -0.10224,0.204478 -0.38925,0.325554 -0.51663,0.516631 -0.51249,0.768739 -0.7917,1.568254 -1.03326,2.454 -0.1549,0.567962 -0.12916,1.099785 -0.12916,1.679053 0,0.574419 -0.095,1.238142 0,1.80821 0.0448,0.268584 0.18351,0.513136 0.25831,0.774947 0.26983,0.944403 0.51796,1.940456 0.90411,2.841474 0.24343,0.567994 0.28852,0.181234 0.38747,0.774946 0.0212,0.127402 -0.0253,0.260826 0,0.387474 0.0684,0.34195 0.31662,0.678958 0.38748,1.033264 0.0734,0.367035 -0.0412,0.791761 0,1.162421 0.0819,0.737081 0.28435,1.473869 0.38747,2.195684 0.11782,0.82473 0,1.74239 0,2.583156 0,1.499865 0.0787,3.024865 0,4.520528 -0.0875,1.662142 -0.61963,3.272285 -0.9041,4.907997 -0.097,0.557893 -0.14166,1.124932 -0.25832,1.679054 -0.0561,0.266449 -0.21355,0.506362 -0.25832,0.774946 -0.13288,0.797322 0.15397,0.630952 -0.12915,1.291577 -0.7648,1.147188 0.10348,-0.310454 -0.25832,0.774951 -0.0491,0.147262 -0.20923,0.24021 -0.25832,0.387472 -0.0408,0.122531 0.048,0.267552 0,0.387474 -0.0452,0.113062 -0.19566,0.153898 -0.25831,0.258313 -0.33144,0.5524 -0.42383,1.256461 -0.77495,1.808213 -1.00385,1.577485 -0.20934,0.338492 -1.29158,1.420738 -0.55442,0.554421 -0.99547,1.253789 -1.54989,1.80821 -0.44145,0.441439 -1.18202,0.936554 -1.67905,1.291577 -0.60274,0.430525 -1.21565,0.847156 -1.808216,1.291577 -0.220536,0.165404 -0.394827,0.402558 -0.645787,0.516636 -0.238406,0.108359 -0.524116,0.05391 -0.774949,0.129159 -0.184417,0.0553 -0.331502,0.20542 -0.516633,0.25831 -0.248375,0.071 -0.52278,-0.056 -0.774944,0 -0.811032,0.18023 -1.659916,0.5268 -2.454002,0.77495 -1.153012,0.36032 -2.22599,0.88725 -3.358105,1.29158 -0.777433,0.27765 -1.654405,0.44589 -2.453997,0.64579 -0.254061,0.0635 -0.526508,0.0463 -0.774949,0.12916 -0.273984,0.0913 -0.498914,0.30254 -0.774946,0.38747 -0.290965,0.0895 -0.606438,0.0654 -0.904105,0.12916 -0.306472,0.0657 -0.593426,0.21689 -0.904105,0.25831 -0.674677,0.09 -1.392272,-0.0963 -2.066528,0 -0.134774,0.0193 -0.252696,0.10991 -0.387472,0.12916 -0.170479,0.0243 -0.351049,-0.0473 -0.516631,0 -0.149259,0.0427 -0.24335,0.20067 -0.387474,0.25832 -0.07995,0.032 -0.176633,-0.0272 -0.258315,0 -0.247695,0.0826 -0.144778,1.19366 -0.258316,1.42073 -0.247734,0.49547 -1.063016,0.54638 -1.420738,0.90411 -0.03044,0.0304 0.03044,0.0987 0,0.12916 -0.05032,0.0503 -0.437814,0 -0.516631,0 -0.215265,0.30137 -0.38391,0.64222 -0.64579,0.9041 -0.09627,0.0963 -0.265702,0.0683 -0.387474,0.12916 -0.638183,0.31909 -1.239531,0.75413 -1.937369,1.03326 -0.007,0.003 -1.346036,0.44193 -1.420736,0.51664 -0.03044,0.0304 0.03044,0.0987 0,0.12915 -0.03044,0.0305 -0.09871,-0.0304 -0.129156,0 -0.03044,0.0305 0.01923,0.0906 0,0.12916 -0.05446,0.10892 -0.19077,0.157 -0.258318,0.25832 -0.585629,0.87844 -0.860137,2.06103 -1.033262,3.09979 -0.07637,0.45824 0.09106,0.96541 0,1.42073 -0.10424,0.5212 -0.739624,1.74943 -1.16242,2.06653 -0.187243,0.14043 -0.458547,0.24704 -0.64579,0.38747 -0.512479,0.38436 -0.753488,1.06916 -1.420738,1.29158 -0.122529,0.0408 -0.260824,-0.0253 -0.387472,0 -1.081609,0.21632 1.060397,0.0915 -0.774949,0.25832 -0.899432,0.0818 -2.775926,0.11206 -3.61642,0 -0.269901,-0.036 -0.510789,-0.19228 -0.774946,-0.25832 -0.77642,-0.1941 -1.573715,-0.34534 -2.324843,-0.64579 -0.113266,-0.0453 -0.410628,-0.23181 -0.516631,-0.25831 -0.125301,-0.0313 -0.264943,0.0408 -0.387474,0 -0.294524,-0.0982 -0.508733,-0.35691 -0.774947,-0.51664 -0.449241,-0.26954 -1.175202,-0.40025 -1.549894,-0.77494 -0.109763,-0.10977 -0.139068,-0.2881 -0.258316,-0.38748 -0.147912,-0.12326 -0.362603,-0.14279 -0.516633,-0.25831 -0.912781,-0.68459 -0.09869,-0.39503 -1.16242,-1.03327 -0.676185,-0.40571 -1.682602,-0.48389 -2.454,-0.38747 -1.37849,0.17231 -2.335657,1.13644 -3.487262,1.80821 -0.249465,0.14552 -0.527298,0.23889 -0.774948,0.38747 -0.184587,0.11076 -0.319921,0.30005 -0.516631,0.38748 -0.200607,0.0892 -0.437528,0.0597 -0.64579,0.12916 -0.05776,0.0192 -0.07263,0.10654 -0.129159,0.12915 -0.690046,0.27602 -1.456563,0.30968 -2.195684,0.38748 -1.832298,0.19287 -3.627178,-0.29195 -5.42463,-0.51663 -0.206045,-0.0258 -0.701144,0.10148 -0.904106,0 -1.010507,-0.50526 -2.295522,-1.12133 -3.487261,-1.29158 -0.298341,-0.0426 -0.606242,0.0458 -0.904105,0 -0.948446,-0.14592 -2.080366,-0.67716 -2.970633,-1.03327 -0.467876,-0.18715 -0.963197,-0.30546 -1.420736,-0.51663 -0.315153,-0.14545 -0.585068,-0.3799 -0.904105,-0.51663 -0.588274,-0.25212 -1.211704,-0.41381 -1.80821,-0.64579 -0.509508,-0.19814 -0.921343,-0.55299 -1.420736,-0.77495 -0.773882,-0.34394 -1.63172,-0.66733 -2.324843,-1.16242 -1.475377,-1.05384 -2.725592,-2.70326 -3.61642,-4.26221 -0.173831,-0.3042 -0.142362,-0.72405 -0.258316,-1.03326 -0.0545,-0.14534 -0.197168,-0.2448 -0.258316,-0.38747 -0.203898,-0.47576 -0.231624,-1.08235 -0.387473,-1.5499 -0.21797,-0.65391 -0.557302,-1.22946 -0.64579,-1.93737 -0.08495,-0.67959 -0.124282,-1.39635 -0.258316,-2.066523 -0.03776,-0.188798 -0.220556,-0.327832 -0.258315,-0.51663 -0.05066,-0.253299 0.04247,-0.520147 0,-0.774949 -0.02238,-0.134292 -0.109905,-0.252696 -0.129158,-0.387472 -0.0548,-0.383579 0.04279,-0.777316 0,-1.16242 -0.103971,-0.935736 -0.491807,-2.682457 -0.258316,-3.616423 0.253672,-1.014688 1.01334,-1.444506 1.549895,-2.195682 0.167865,-0.235013 0.207058,-0.549428 0.387473,-0.774949 0.09697,-0.121213 0.301369,-0.129156 0.387474,-0.258315 0.09847,-0.147698 0.05923,-0.353473 0.129158,-0.516631 0.06115,-0.142679 0.188895,-0.248634 0.258315,-0.387474 0.25134,-0.502679 0.01002,-0.324752 0.258316,-0.904105 0.194225,-0.453192 0.772828,-1.090425 0.904105,-1.549895 0.09462,-0.331168 0,-0.688842 0,-1.033264 0,-0.543528 0.05984,-1.140534 0,-1.679051 -0.06259,-0.563311 -0.277467,-1.129022 -0.387473,-1.679054 -0.131467,-0.657333 0.07416,-1.399069 0,-2.066525 -0.0196,-0.176424 -0.107141,-0.340493 -0.129158,-0.516631 -0.04272,-0.341762 0.03118,-0.690258 0,-1.033264 -0.420101,-2.940704 0.08672,0.91145 -0.129158,-1.679051 -0.09735,-1.168252 -0.438446,-2.314477 -0.516632,-3.487264 -0.04582,-0.687316 0.0344,-1.378543 0,-2.066525 -0.05196,-1.039318 -0.184679,-2.068881 -0.258315,-3.09979 -0.06048,-0.846664 0,-1.732881 0,-2.583156 0,-0.387475 -0.08405,-0.784175 0,-1.162423 0.05029,-0.226325 0.197313,-0.422114 0.258315,-0.64579 0.06891,-0.252651 0.06564,-0.520885 0.129158,-0.774946 0.260399,-1.041593 1.075318,-3.269504 1.420737,-4.133051 0.09323,-0.233085 0.283594,-0.417253 0.387474,-0.64579 0.370895,-0.815972 0.552676,-1.627992 1.162421,-2.324843 0.578234,-0.660839 1.424701,-1.638202 2.195684,-2.066526 0.202668,-0.112593 0.450191,-0.133842 0.64579,-0.258315 0.863266,-0.549352 2.179214,-1.741726 2.97063,-2.454 1.024255,-0.921832 1.674548,-2.192681 2.841474,-2.97063 0.776939,-0.517962 0.226968,-0.122889 0.904105,-0.258316 0.321511,-0.0643 0.588841,-0.297399 0.904105,-0.387474 0.381654,-0.109045 0.781625,-0.146317 1.162421,-0.258318 0.692462,-0.134816 1.27259,-0.570397 1.937369,-0.774946 0.66489,-0.204581 1.415989,-0.237831 2.066525,-0.516631 0.504659,-0.216281 1.006314,-0.639053 1.549895,-0.774949 1.901161,-0.475289 -0.707707,0.481804 2.454,-0.51663 0.2754,-0.08697 0.506796,-0.280215 0.774946,-0.387475 2.636295,-1.054515 -0.323315,0.331703 2.324844,-0.904105 0.845224,-0.394438 1.773406,-1.02829 2.712315,-1.16242 0.755951,-0.107992 1.59589,0.04816 2.324841,0.129159 1.259583,0.139954 2.966836,0.291079 4.26221,0.129156 0.995404,-0.124425 1.980157,-0.116819 2.97063,-0.258315 0.195416,-0.02792 0.458695,0.06236 0.64579,0 0.343961,-0.114652 0.654732,-0.20424 1.033264,-0.258315 0.12786,-0.01826 0.264943,0.04084 0.387474,0 0.5812,-0.193734 0.235292,-0.258316 0.904105,-0.258316"
         id="path9" /></clipPath><clipPath
       clipPathUnits="userSpaceOnUse"
       id="clipPath10"><path
         style="display:inline;fill:#000000;fill-opacity:1;stroke:#0079ba;stroke-width:0.132292;paint-order:markers stroke fill"
         d="m 93.381145,38.876523 c 0.541872,-1.114663 0.442153,-3.154466 1.291582,-4.003895 0.435935,-0.435938 1.199872,-0.881179 1.80821,-1.033264 0.167066,-0.04177 0.346149,0.02437 0.516628,0 0.310282,-0.04433 0.610637,-0.148264 0.904105,-0.258315 1.12948,-0.423556 -0.150392,-0.112689 1.162426,-0.516631 1.101784,-0.33901 2.269674,-0.541295 3.358104,-0.904105 0.35101,-0.117007 1.34677,-0.47965 1.67905,-0.64579 0.27324,-0.136617 0.67009,-0.49953 0.90411,-0.645789 0.7313,-0.457063 1.68131,-0.695214 2.454,-1.033264 0.26459,-0.115758 0.49891,-0.302541 0.77494,-0.387472 1.02494,-0.315365 2.18805,-0.239059 3.22895,-0.516633 2.46534,-0.657424 -0.14584,-0.08054 2.32484,-0.904105 0.37656,-0.125519 0.78587,-0.132797 1.16242,-0.258316 0.65985,-0.219948 1.29534,-0.507434 1.93737,-0.774946 1.14351,-0.476462 2.1426,-1.135878 3.22895,-1.679054 1.0947,-0.547351 2.43333,-0.995807 3.61642,-1.291579 0.1253,-0.03132 0.26376,0.03711 0.38747,0 0.31405,-0.09421 0.59073,-0.291049 0.90411,-0.387473 0.75083,-0.231026 0.78818,-0.07056 1.54989,-0.129158 0.17569,-0.01352 3.29204,-0.29135 3.35811,-0.258316 0.27835,0.139179 0.6491,0.739625 0.77494,1.033263 0.0699,0.163158 0.0378,0.364418 0.12916,0.516632 0.173,0.288333 0.44077,0.508426 0.64579,0.774947 0.69491,0.903388 1.41323,2.099193 1.67905,3.228948 0.26803,1.139121 0.12916,2.455016 0.12916,3.616421 0,0.844084 0.084,1.74295 0,2.583156 -0.13637,1.363742 -0.48893,2.669159 -0.77495,4.003894 -0.17104,0.798211 -0.17363,1.66991 -0.38747,2.454 -0.0507,0.185754 -0.20542,0.331502 -0.25832,0.516634 -0.0355,0.124187 0.0183,0.259611 0,0.387471 -0.0644,0.451088 -0.31385,0.849847 -0.38747,1.29158 -0.0649,0.389398 -0.0397,0.798049 -0.25832,1.16242 -0.0626,0.104418 -0.19566,0.153898 -0.25831,0.258315 -0.27448,0.457476 -0.40595,1.070214 -0.64579,1.549895 -0.11227,0.224536 -0.28227,0.417859 -0.38747,0.64579 -0.25129,0.544462 -0.37762,1.142706 -0.64579,1.679054 -0.58452,1.169029 -1.22329,2.317424 -1.80821,3.487261 -0.24287,0.485743 -0.3426,1.095108 -0.64579,1.549895 -0.31299,0.469487 -0.97819,0.522062 -1.42074,0.774948 -0.68065,0.388941 -1.23291,0.912257 -1.93737,1.291577 -1.23774,0.666475 -2.50517,1.275824 -3.74558,1.937369 -1.17143,0.624766 -2.29946,1.34347 -3.48726,1.937369 -0.29326,0.146633 -0.61542,0.232027 -0.9041,0.387472 -0.27335,0.147188 -0.49232,0.388165 -0.77495,0.516633 -0.19985,0.09084 -0.43753,0.05974 -0.64579,0.129157 -1.73402,0.578006 0.51312,-0.05026 -0.90411,0.516633 -0.0799,0.03198 -0.17388,-0.01688 -0.25831,0 -0.67593,0.135186 -2.79242,0.676828 -3.09979,1.291577 -0.32832,0.656646 -0.66896,1.582936 -0.77495,2.324843 -0.0183,0.12786 0.0253,0.260824 0,0.387475 -0.0189,0.0944 -0.11333,0.163356 -0.12916,0.258315 -0.12876,0.772597 0,1.66742 0,2.454 0,0.719087 -0.0598,1.477809 0,2.195682 0.14526,1.743099 0.11532,0.02535 0.38748,2.066528 0.0341,0.256048 -0.0215,0.517522 0,0.774946 0.0722,0.866849 0.32519,1.711275 0.38747,2.583159 0.13174,1.84441 0.0411,3.757372 -0.25831,5.553789 -0.0767,0.460378 0.066,0.958763 0,1.420736 -0.0328,0.229513 -0.2202,0.417097 -0.25832,0.64579 -0.10117,0.607033 -0.22315,0.947364 -0.38747,1.549892 -0.0689,0.252653 -0.0617,0.521912 -0.12916,0.774946 -0.10524,0.394642 -0.28841,0.766183 -0.38747,1.162423 -0.0738,0.295336 -0.0491,0.610404 -0.12916,0.904105 -0.12143,0.445233 -0.50867,0.880221 -0.64579,1.291577 -0.0272,0.08169 0.0478,0.186674 0,0.258318 -0.40247,0.603697 -0.55725,0.42809 -1.03327,0.904105 -0.15221,0.152212 -0.24572,0.354629 -0.38747,0.516633 -0.28065,0.320744 -0.63126,0.576689 -0.9041,0.904105 -0.31199,0.374378 -0.49711,0.773438 -0.77495,1.162418 -0.31205,0.436872 -0.81836,0.749541 -1.16242,1.162423 -0.16071,0.192852 -0.19145,0.488966 -0.38748,0.64579 -0.42843,0.342749 -1.06972,0.53486 -1.54989,0.774946 -0.61313,0.306562 -0.80653,0.545822 -1.420737,0.904105 -0.867556,0.506074 -1.735172,1.004763 -2.583159,1.549892 -0.67568,0.434372 -1.270881,0.976413 -1.937369,1.420741 -0.278892,0.185928 -0.625213,0.201544 -0.904105,0.387472 -0.891273,0.594187 -1.715233,1.046827 -2.712313,1.420737 -1.70956,0.64109 -3.415067,1.22446 -5.166315,1.80821 -3.966072,1.32203 1.378069,-0.42634 -2.195684,0.64579 -0.779619,0.23389 0.105013,0.0121 -0.387477,0.25832 -0.03851,0.0193 -0.09871,-0.0305 -0.129154,0 -0.06807,0.0681 -0.06109,0.19024 -0.129159,0.25831 -0.06807,0.0681 -0.190243,0.0611 -0.258315,0.12916 -0.06089,0.0609 0.03851,0.1813 0,0.25831 -0.164066,0.32814 -0.154366,-0.13227 -0.258318,0.38748 -0.02532,0.12665 0.02532,0.26082 0,0.38747 -0.01889,0.0944 -0.08611,0.17221 -0.129159,0.25832 -0.04305,0.12916 -0.106773,0.25318 -0.129154,0.38747 -0.08578,0.51469 -0.183613,1.02696 -0.258315,1.5499 -0.04262,0.29833 0.07309,0.61173 0,0.9041 -0.190831,0.76332 -0.482481,1.46452 -0.774949,2.19568 -0.09687,0.24218 -0.322895,0.54893 -0.387472,0.77495 -0.03548,0.12419 0.04084,0.26495 0,0.38748 -0.274357,0.82306 -1.365652,1.28706 -2.066528,1.54989 -0.631645,0.23687 -1.194046,0.64089 -1.80821,0.90411 -0.505918,0.21682 -0.938924,0.51214 -1.420736,0.77494 -0.934722,0.50985 -1.062326,0.46659 -2.195684,1.03327 -0.60647,0.30323 -0.162494,0.19415 -0.64579,0.38747 -1.849287,0.73971 -5.094224,0.0551 -6.974525,-0.25832 -0.1274,-0.0212 -0.267555,0.048 -0.387475,0 -0.113061,-0.0452 -0.144295,-0.21555 -0.258315,-0.25831 -0.245205,-0.0919 -0.526507,-0.0464 -0.774946,-0.12916 -0.584787,-0.19493 -1.110051,-0.53786 -1.679054,-0.77495 -0.947621,-0.39484 -1.795886,-0.83336 -2.712315,-1.29158 -0.42019,-0.21009 -0.404799,-0.0173 -0.774946,-0.38747 -0.03044,-0.0304 0.0136,-0.0883 0,-0.12916 -0.07332,-0.21994 -0.14329,-0.44449 -0.258318,-0.64579 -0.06042,-0.10572 -0.195665,-0.1539 -0.258315,-0.25831 -0.136197,-0.227 -0.334791,-0.76985 -0.387472,-1.03327 -0.02532,-0.12665 0.04084,-0.26494 0,-0.38747 -0.04909,-0.14726 -0.220668,-0.23688 -0.258318,-0.38747 -0.05221,-0.20884 0.0267,-0.43219 0,-0.64579 -0.03377,-0.27019 -0.183512,-0.51314 -0.258315,-0.77495 -0.333534,-1.16737 -1.009449,-2.49614 -2.195685,-2.97063 -0.144124,-0.0576 -0.24021,-0.20923 -0.387472,-0.25832 -0.110019,-0.0367 -0.835675,-0.0513 -0.904105,0 -0.392922,0.29469 -0.387474,0.87245 -0.387474,1.29158 0,0.68011 -0.150117,2.37016 0,2.97063 0.180382,0.72153 0.812395,1.89992 0.129156,2.58316 -0.617476,0.61748 -2.419969,0.96799 -3.228946,1.29158 -0.371882,0.0445 -0.585067,0.3799 -0.904105,0.51663 -0.437739,0.1876 -0.870116,0.3059 -1.291579,0.51663 -0.224533,0.11227 -0.40441,0.31851 -0.64579,0.38748 -0.36078,0.10308 -1.409417,0.0929 -1.80821,0.12915 -1.520825,0.13826 -3.119866,0.27486 -4.649681,0.12916 -0.479177,-0.0456 -0.943439,-0.19606 -1.420739,-0.25831 -1.600618,-0.20878 -3.18448,-0.36851 -4.778841,-0.64579 -1.502814,-0.26136 -3.014046,-0.41403 -4.520525,-0.64579 -0.650923,-0.10014 -1.285409,-0.29434 -1.937369,-0.38748 -0.213101,-0.0304 -0.431842,0.0238 -0.64579,0 -0.352848,-0.0392 -0.68181,-0.2081 -1.033264,-0.25831 -0.127857,-0.0183 -0.26217,0.0313 -0.387471,0 -0.203029,-0.0508 -0.491752,-0.3934 -0.64579,-0.51663 -0.66742,-0.53394 -1.460906,-0.94428 -2.066527,-1.5499 -0.219526,-0.21952 -0.317882,-0.53645 -0.516632,-0.77495 -0.194889,-0.23386 -0.489162,-0.38474 -0.645789,-0.64578 -0.12567,-0.20945 -0.173875,-0.70708 -0.258316,-0.90411 -0.122294,-0.28536 -0.418456,-0.48042 -0.516631,-0.77495 -0.04084,-0.12253 0.04797,-0.26755 0,-0.38747 -0.04523,-0.11306 -0.213091,-0.14525 -0.258316,-0.25832 -0.04797,-0.11992 0.03132,-0.26217 0,-0.38747 -0.0467,-0.18679 -0.205422,-0.3315 -0.258316,-0.51663 -0.109044,-0.38165 -0.132797,-0.78587 -0.258315,-1.16242 -0.06089,-0.18266 -0.202991,-0.33222 -0.258316,-0.51663 -0.08717,-0.29057 -0.22796,-1.6109 -0.258316,-1.80821 -0.233347,-1.51676 -0.457035,-3.0105 -0.645789,-4.520531 -0.06355,-0.508376 0.05657,-1.040731 0,-1.549895 -0.158166,-1.42349 1.995027,-2.704743 1.827913,-4.125217 -0.04024,-0.342061 0.02454,-0.689718 0,-1.033264 -0.03263,-0.456766 -0.518871,-2.318123 -0.387474,-2.712315 0.03044,-0.09133 0.05214,-0.200554 0.129158,-0.258315 0.217831,-0.16337 0.531404,-0.136544 0.774947,-0.258313 0.57145,-0.285729 -1.430549,-0.699974 -0.79465,-0.911942 0.08169,-0.02723 0.19743,0.06089 0.258316,0 0.660046,-0.660048 -0.541556,0.180139 0.387474,-0.516631 0.07701,-0.05776 0.17221,-0.08611 0.258315,-0.129159 0.129158,-0.04305 0.278559,-0.04747 0.387474,-0.129156 0.185628,-0.139221 0.49732,-0.810559 0.645789,-1.033264 0.0534,-0.0801 0.215264,-0.04305 0.258316,-0.129159 0.07851,-0.157017 0.06679,-0.329541 0.129158,-0.516631 0.08839,-0.265181 0.319615,-0.374351 0.387474,-0.645787 0.179714,-0.718862 -0.09188,-1.589815 0,-2.324843 0.02202,-0.176139 0.109555,-0.340207 0.129157,-0.516631 0.07075,-0.636709 -0.05319,-1.29903 0,-1.937369 0.06592,-0.791009 0.203385,-0.761566 0.258316,-1.420736 0.07827,-0.939252 -0.09377,-1.903754 0,-2.841474 0.02184,-0.218438 0.107315,-0.427353 0.129158,-0.64579 0.127569,-1.275683 -0.158968,-2.602989 0,-3.874735 0.119004,-0.95203 0.339706,-1.923225 0.64579,-2.841477 0.06089,-0.182653 0.205421,-0.331499 0.258315,-0.516628 0.03548,-0.124188 -0.03548,-0.263285 0,-0.387475 0.0969,-0.339161 0.446227,-0.681233 0.516632,-1.033261 0.02532,-0.126651 -0.04797,-0.267555 0,-0.387475 0.04522,-0.113061 0.21309,-0.145253 0.258316,-0.258315 0.04797,-0.11992 -0.02532,-0.260823 0,-0.387474 0.03559,-0.177948 0.338568,-0.531678 0.387474,-0.64579 0.163306,-0.381048 0.267737,-1.220621 0.387474,-1.549895 0.0658,-0.180946 0.202989,-0.332213 0.258316,-0.51663 0.699735,-2.332456 -0.141777,0.192256 0.129156,-1.162421 0.0085,-0.04256 0.249113,-0.881097 0.258318,-0.904105 0.05765,-0.144126 0.203811,-0.242131 0.258315,-0.387474 0.229503,-0.612011 0.328293,-1.309571 0.516631,-1.937369 0.196866,-0.65622 0.655087,-1.056511 0.904105,-1.679051 0.288467,-0.72117 0.410853,-1.320803 0.904105,-1.93737 0.294399,-0.367998 0.670557,-0.632076 1.033264,-0.904105 0.603607,-0.452707 1.098484,-1.066088 1.679051,-1.549894 0.472882,-0.394068 1.037926,-0.584124 1.549895,-0.904106 0.548696,-0.342934 1.164056,-0.776173 1.679054,-1.16242 0.146124,-0.109596 0.238839,-0.281308 0.387472,-0.387474 0.428363,-0.305972 0.482496,-0.206783 0.904105,-0.387475 0.319037,-0.136728 0.579104,-0.394755 0.904105,-0.51663 0.205549,-0.07708 0.437531,-0.05974 0.645789,-0.129157 0.615323,-0.205107 1.187583,-0.568071 1.808211,-0.774948 l 1.937369,-0.64579 c 0.336801,-0.112268 0.706948,-0.118465 1.033264,-0.258315 0.142676,-0.06115 0.248631,-0.188897 0.387471,-0.258316 1.130663,-0.56533 0.175819,-0.01749 1.162423,-0.387474 0.723535,-0.271325 1.379519,-0.689761 2.066526,-1.033262 1.160029,-0.580014 -0.67999,0.564333 1.033261,-0.387474 0.188175,-0.104542 0.319924,-0.300048 0.516634,-0.387474 0.486632,-0.216281 1.04091,-0.230862 1.549894,-0.387475 0.865344,-0.266258 1.690524,-0.596421 2.583157,-0.774946 0.298516,-0.0597 0.606927,-0.06312 0.904105,-0.129159 0.281929,-0.06265 0.511035,-0.270176 0.774948,-0.387471 2.629631,-1.168726 -1.266989,0.571986 1.291577,-0.387475 0.145346,-0.0545 0.243348,-0.200665 0.387475,-0.258315 0.241876,-0.09675 1.360349,-0.253283 1.420738,-0.258315 1.65358,-0.137801 3.375192,0 5.037156,0 1.186312,0 2.700695,-0.160097 3.874736,0 1.294836,0.176567 3.09205,0.778816 4.391369,0.129156 0.121771,-0.06089 0.291205,-0.03289 0.387474,-0.129156 0.159142,-0.159145 -0.105389,-2.496384 0,-2.970634 0.323046,-1.45371 1.115944,-2.722716 1.549895,-4.133051 0.07702,-0.250298 0.06564,-0.520887 0.129156,-0.774948 0.295188,-1.180746 0.595664,-2.478665 1.033264,-3.616421 0.103674,-0.269554 0.296146,-0.500962 0.387474,-0.774946 0.08281,-0.248441 0.06025,-0.522298 0.129157,-0.774948 0.268158,-0.983248 0.161721,-0.32344 0.516631,-1.033262 0.623697,-1.247394 -0.166394,0.240866 0.129159,-0.645789 0.06088,-0.182658 0.186809,-0.337865 0.258315,-0.516634 0.129159,-0.322894 -0.258315,0.129159 0,-0.387473 0.05446,-0.108915 0.185253,-0.160898 0.258315,-0.258315 0.708533,-0.944711 1.787827,-2.056334 2.841472,-2.583158 0.478036,-0.239017 0.443759,-0.03725 1.033264,-0.258316 0.145346,-0.0545 0.248634,-0.188895 0.387474,-0.258316 0.21979,-0.109893 0.56691,-0.154297 0.774949,-0.258315 0.108916,-0.05446 0.142793,-0.219809 0.258315,-0.258316 0.404411,-0.134803 1.944198,0 2.324841,0 1.479156,0 2.963556,-0.261853 4.26221,0.387474 0.197816,0.09891 0.101005,0.230161 0.258318,0.387473 0.03044,0.03044 0.0861,0 0.129154,0 0.08611,0.04305 0.190246,0.06109 0.258318,0.129158 0.179144,0.179147 0.321249,0.45041 0.516633,0.645789"
         id="path11"
         sodipodi:nodetypes="csscsssssssssssssssssscssscscscscsssssssssssscscscccscccscssssccccssssssssssssssccssssscsssssssssssccccssccssssssscscssscssssccssccccssssssssssssssssssssscscsssssssssssssssssscsscssssssssssssssssscsssssssssssssssssssssssssssssssssscsc" /></clipPath></defs><g
     inkscape:label="Buddies"
     inkscape:groupmode="layer"
     id="layer1"
     style="display:none"><image
       width="514.08539"
       height="126.20625"
       preserveAspectRatio="none"
       xlink:href="Para-Biddybuds.png"
       id="image1-6"
       x="-152.04269"
       y="407.08099"
       style="display:none" /><image
       width="514.08539"
       height="126.20625"
       preserveAspectRatio="none"
       xlink:href="Para-Biddybuds.png"
       id="image1-6-4"
       x="-92.614433"
       y="16.668747"
       style="display:none"
       clip-path="url(#clipPath4)"
       transform="matrix(1.1307201,0,0,1.1307201,-14.364731,-3.7182149)"
       inkscape:label="GreenBuddy" /><image
       width="514.08539"
       height="126.20625"
       preserveAspectRatio="none"
       xlink:href="Para-Biddybuds.png"
       id="image1"
       x="-142.33421"
       y="85.396873"
       clip-path="url(#clipPath2)"
       transform="matrix(1.1063216,0,0,1.1063216,165.6748,-98.063728)"
       inkscape:label="RedBuddy"
       style="display:none" /><image
       width="514.08539"
       height="126.20625"
       preserveAspectRatio="none"
       xlink:href="Para-Biddybuds.png"
       id="image1-6-2"
       x="-185.60519"
       y="8.3343735"
       style="display:none"
       clip-path="url(#clipPath7)"
       transform="matrix(1.285023,0,0,1.285023,-26.660589,-17.163866)"
       inkscape:label="YellowBuddy" /><image
       width="514.08539"
       height="126.20625"
       preserveAspectRatio="none"
       xlink:href="Para-Biddybuds.png"
       id="image1-6-41"
       x="-294.98132"
       y="-10.584699"
       style="display:none"
       clip-path="url(#clipPath8)"
       inkscape:label="BlueBuddy"
       transform="matrix(1.4136982,0,0,1.4136982,-23.216606,-24.118432)" /><image
       width="514.08539"
       height="126.20625"
       preserveAspectRatio="none"
       xlink:href="Para-Biddybuds.png"
       id="image1-6-9"
       x="-383.42426"
       y="0"
       style="display:inline"
       clip-path="url(#clipPath10)"
       inkscape:label="PinkBuddy"
       transform="matrix(1.2819062,0,0,1.2819062,-25.543369,-19.042306)" /></g><g
     inkscape:groupmode="layer"
     id="layer2"
     inkscape:label="Items"
     style="display:inline"><image
       width="118.20208"
       height="133.81369"
       preserveAspectRatio="none"
       xlink:href="../../../../../../AppData/Local/Temp/inkscape-dnd-import"
       id="image1-12"
       x="12.336458"
       y="4.5306563"
       style="display:inline"
       inkscape:label="Super Star" /><image
       width="142.875"
       height="142.875"
       preserveAspectRatio="none"
       xlink:href="Bookshelf%20Old.png"
       id="image1-8"
       x="3.5527137e-14"
       y="3.5527137e-14"
       style="display:none"
       inkscape:label="Bookshelf" /><image
       width="86.139435"
       height="137.11832"
       preserveAspectRatio="none"
       xlink:href="Chair%20Old.png"
       id="image1-0"
       x="28.367785"
       y="2.8783422"
       style="display:none"
       inkscape:label="Chair" /><image
       width="129.04192"
       height="107.74999"
       preserveAspectRatio="none"
       xlink:href="Mega%20Mushroom%20Old.png"
       id="image1-87"
       x="6.916543"
       y="17.562504"
       style="display:none"
       inkscape:label="Mega Mushroom" /><image
       width="120.90103"
       height="68.017464"
       preserveAspectRatio="none"
       xlink:href="Pile%20of%20Trash%20Old.png"
       id="image1-2"
       x="10.986985"
       y="37.428768"
       style="display:none"
       inkscape:label="Pile of Trash" /><image
       width="87.148521"
       height="87.148521"
       preserveAspectRatio="none"
       xlink:href="Printer%20Ink%20Old.png"
       id="image1-23"
       x="27.863239"
       y="27.863239"
       style="display:none"
       inkscape:label="Printer Ink" /><image
       width="102.99947"
       height="102.99947"
       preserveAspectRatio="none"
       xlink:href="Shoe%20Old.png"
       id="image1-68"
       x="19.937763"
       y="19.937763"
       style="display:none"
       inkscape:label="Shoe" /><image
       width="102.99947"
       height="102.99947"
       preserveAspectRatio="none"
       xlink:href="Smartphone%20Old.png"
       id="image1-02"
       x="19.937763"
       y="19.937763"
       style="display:none"
       inkscape:label="Smartphone" /><image
       width="142.875"
       height="123.825"
       preserveAspectRatio="none"
       xlink:href="Spiny%20Shell%20Old.png"
       id="image1-04"
       x="4.2632564e-14"
       y="9.5250015"
       style="display:none"
       inkscape:label="Spiny Shell" /><image
       width="142.875"
       height="83.581871"
       preserveAspectRatio="none"
       xlink:href="Table%20Old.png"
       id="image1-22"
       x="-2.5461114e-14"
       y="29.646564"
       style="display:none"
       inkscape:label="Table" /></g></svg>
